<svg xmlns="http://www.w3.org/2000/svg" xmlns:xlink="http://www.w3.org/1999/xlink" width="70" zoomAndPan="magnify" viewBox="0 0 52.5 52.499999" height="70" preserveAspectRatio="xMidYMid meet" version="1.0"><defs><clipPath id="d7f2837edf"><path d="M 9.746094 3.652344 L 42.746094 3.652344 L 42.746094 49.394531 L 9.746094 49.394531 Z M 9.746094 3.652344 " clip-rule="nonzero"/></clipPath></defs><g clip-path="url(#d7f2837edf)"><path fill="#dab279" d="M 12.871094 48.429688 L 39.625 48.429688 C 40.820312 48.429688 41.789062 47.457031 41.789062 46.253906 L 41.789062 6.792969 C 41.789062 5.589844 40.820312 4.617188 39.625 4.617188 L 12.871094 4.617188 C 11.675781 4.617188 10.703125 5.589844 10.703125 6.792969 L 10.703125 46.253906 C 10.703125 47.457031 11.675781 48.429688 12.871094 48.429688 Z M 40.582031 49.394531 L 11.910156 49.394531 C 10.714844 49.394531 9.746094 48.417969 9.746094 47.21875 L 9.746094 5.832031 C 9.746094 4.628906 10.714844 3.652344 11.910156 3.652344 L 40.582031 3.652344 C 41.777344 3.652344 42.746094 4.628906 42.746094 5.832031 L 42.746094 47.21875 C 42.746094 48.417969 41.777344 49.394531 40.582031 49.394531 " fill-opacity="1" fill-rule="nonzero"/></g><path fill="#dab279" d="M 14.242188 21.621094 L 13.148438 20.210938 C 13.042969 20.078125 13.054688 19.882812 13.171875 19.761719 C 13.3125 19.617188 13.503906 19.429688 13.636719 19.582031 L 14.234375 20.257812 C 14.378906 20.421875 14.628906 20.414062 14.761719 20.242188 L 15.960938 18.703125 C 16.054688 18.585938 16.226562 18.578125 16.332031 18.683594 L 16.675781 19.03125 C 16.804688 19.160156 16.8125 19.367188 16.6875 19.503906 L 14.765625 21.640625 C 14.625 21.800781 14.375 21.789062 14.242188 21.621094 " fill-opacity="1" fill-rule="nonzero"/><path fill="#dab279" d="M 14.242188 28.460938 L 13.148438 27.050781 C 13.042969 26.914062 13.054688 26.722656 13.171875 26.597656 C 13.3125 26.457031 13.503906 26.269531 13.636719 26.417969 L 14.234375 27.097656 C 14.378906 27.257812 14.628906 27.25 14.761719 27.082031 L 15.804688 25.746094 C 15.980469 25.519531 16.3125 25.5 16.511719 25.703125 L 16.675781 25.867188 C 16.804688 26 16.8125 26.207031 16.6875 26.34375 L 14.765625 28.480469 C 14.625 28.640625 14.375 28.628906 14.242188 28.460938 " fill-opacity="1" fill-rule="nonzero"/><path fill="#dab279" d="M 14.242188 35.988281 L 13.148438 34.578125 C 13.042969 34.441406 13.054688 34.25 13.171875 34.125 C 13.3125 33.980469 13.503906 33.796875 13.636719 33.945312 L 14.234375 34.625 C 14.378906 34.785156 14.628906 34.777344 14.761719 34.609375 L 15.804688 33.273438 C 15.980469 33.046875 16.3125 33.027344 16.511719 33.230469 L 16.675781 33.394531 C 16.804688 33.523438 16.8125 33.734375 16.6875 33.871094 L 14.765625 36.007812 C 14.625 36.164062 14.375 36.15625 14.242188 35.988281 " fill-opacity="1" fill-rule="nonzero"/><path fill="#dab279" d="M 25.660156 12.863281 C 25.144531 13.375 24.332031 13.992188 23.863281 13.953125 C 23.109375 13.890625 22.128906 12.871094 22.128906 12.871094 C 22.128906 12.871094 19.800781 11.191406 21.203125 9.554688 C 22.203125 8.386719 23.863281 10.261719 23.863281 10.261719 C 23.863281 10.261719 25.414062 8.273438 26.628906 8.957031 C 28.089844 9.777344 26.5625 11.96875 25.660156 12.863281 Z M 27.328125 8.054688 C 25.566406 7.066406 23.871094 8.929688 23.871094 8.929688 C 23.230469 8.421875 22.359375 8.011719 21.535156 8.015625 C 20.191406 8.015625 19.1875 9.429688 19.386719 10.726562 C 19.613281 12.226562 21.144531 13.460938 22.253906 14.324219 C 22.597656 14.589844 22.953125 14.855469 23.363281 15 C 24.585938 15.4375 25.683594 14.296875 26.472656 13.507812 C 27.777344 12.210938 29.445312 9.242188 27.328125 8.054688 " fill-opacity="1" fill-rule="nonzero"/><path fill="#dab279" d="M 30.492188 14.359375 C 29.976562 14.871094 29.160156 15.484375 28.695312 15.449219 C 27.941406 15.386719 26.960938 14.363281 26.960938 14.363281 C 26.960938 14.363281 24.335938 12.683594 25.734375 11.046875 C 26.738281 9.878906 28.695312 11.757812 28.695312 11.757812 C 28.695312 11.757812 29.867188 9.910156 31.082031 10.59375 C 32.542969 11.414062 31.390625 13.460938 30.492188 14.359375 Z M 32.15625 9.546875 C 30.398438 8.558594 28.707031 10.675781 28.707031 10.675781 C 28.070312 10.167969 27.191406 9.507812 26.367188 9.507812 C 25.023438 9.511719 24.019531 10.921875 24.214844 12.222656 C 24.445312 13.71875 25.976562 14.957031 27.085938 15.816406 C 27.429688 16.082031 27.785156 16.347656 28.191406 16.492188 C 29.417969 16.929688 30.515625 15.789062 31.304688 15.003906 C 32.609375 13.707031 34.273438 10.738281 32.15625 9.546875 " fill-opacity="1" fill-rule="nonzero"/><path fill="#dab279" d="M 38.054688 20.164062 L 18.980469 20.164062 C 18.640625 20.164062 18.363281 19.886719 18.363281 19.542969 C 18.363281 19.199219 18.640625 18.921875 18.980469 18.921875 L 38.054688 18.921875 C 38.398438 18.921875 38.671875 19.199219 38.671875 19.542969 C 38.671875 19.886719 38.398438 20.164062 38.054688 20.164062 " fill-opacity="1" fill-rule="nonzero"/><path fill="#dab279" d="M 38.054688 24.074219 L 18.980469 24.074219 C 18.640625 24.074219 18.363281 23.796875 18.363281 23.457031 C 18.363281 23.113281 18.640625 22.835938 18.980469 22.835938 L 38.054688 22.835938 C 38.398438 22.835938 38.671875 23.113281 38.671875 23.457031 C 38.671875 23.796875 38.398438 24.074219 38.054688 24.074219 " fill-opacity="1" fill-rule="nonzero"/><path fill="#dab279" d="M 38.054688 27.988281 L 18.980469 27.988281 C 18.640625 27.988281 18.363281 27.710938 18.363281 27.371094 C 18.363281 27.027344 18.640625 26.75 18.980469 26.75 L 38.054688 26.75 C 38.398438 26.75 38.671875 27.027344 38.671875 27.371094 C 38.671875 27.710938 38.398438 27.988281 38.054688 27.988281 " fill-opacity="1" fill-rule="nonzero"/><path fill="#dab279" d="M 38.054688 31.902344 L 18.980469 31.902344 C 18.640625 31.902344 18.363281 31.625 18.363281 31.285156 C 18.363281 30.941406 18.640625 30.664062 18.980469 30.664062 L 38.054688 30.664062 C 38.398438 30.664062 38.671875 30.941406 38.671875 31.285156 C 38.671875 31.625 38.398438 31.902344 38.054688 31.902344 " fill-opacity="1" fill-rule="nonzero"/><path fill="#dab279" d="M 38.054688 35.816406 L 18.980469 35.816406 C 18.640625 35.816406 18.363281 35.539062 18.363281 35.199219 C 18.363281 34.855469 18.640625 34.578125 18.980469 34.578125 L 38.054688 34.578125 C 38.398438 34.578125 38.671875 34.855469 38.671875 35.199219 C 38.671875 35.539062 38.398438 35.816406 38.054688 35.816406 " fill-opacity="1" fill-rule="nonzero"/><path fill="#dab279" d="M 24.6875 43.945312 L 19.214844 43.945312 C 18.890625 43.945312 18.625 43.679688 18.625 43.351562 C 18.625 43.027344 18.890625 42.761719 19.214844 42.761719 L 24.6875 42.761719 C 25.015625 42.761719 25.277344 43.027344 25.277344 43.351562 C 25.277344 43.679688 25.015625 43.945312 24.6875 43.945312 " fill-opacity="1" fill-rule="nonzero"/><path fill="#dab279" d="M 34.980469 38.484375 C 32.695312 38.238281 30.777344 40.167969 31.019531 42.464844 C 31.195312 44.140625 32.535156 45.484375 34.199219 45.664062 C 36.484375 45.90625 38.402344 43.980469 38.160156 41.679688 C 37.984375 40.007812 36.644531 38.660156 34.980469 38.484375 Z M 35.003906 46.621094 C 32.175781 46.875 29.8125 44.5 30.066406 41.65625 C 30.261719 39.476562 32.007812 37.71875 34.175781 37.527344 C 37.003906 37.273438 39.367188 39.644531 39.113281 42.488281 C 38.921875 44.671875 37.171875 46.425781 35.003906 46.621094 " fill-opacity="1" fill-rule="nonzero"/><path fill="#dab279" d="M 36.898438 42.523438 C 36.703125 42.460938 36.585938 42.265625 36.585938 42.058594 C 36.578125 40.964844 35.695312 40.074219 34.605469 40.066406 C 34.398438 40.066406 34.207031 39.949219 34.140625 39.75 C 34.03125 39.417969 34.277344 39.113281 34.589844 39.113281 C 36.214844 39.113281 37.535156 40.441406 37.535156 42.074219 C 37.535156 42.390625 37.230469 42.632812 36.898438 42.523438 " fill-opacity="1" fill-rule="nonzero"/><path fill="#dab279" d="M 34.589844 45.035156 C 32.96875 45.035156 31.652344 43.714844 31.644531 42.085938 C 31.644531 41.855469 31.800781 41.644531 32.027344 41.605469 C 32.332031 41.546875 32.59375 41.78125 32.59375 42.074219 C 32.59375 43.175781 33.484375 44.074219 34.582031 44.078125 C 34.824219 44.078125 35.035156 44.261719 35.0625 44.503906 C 35.09375 44.789062 34.871094 45.035156 34.589844 45.035156 " fill-opacity="1" fill-rule="nonzero"/></svg>