<svg xmlns="http://www.w3.org/2000/svg" xmlns:xlink="http://www.w3.org/1999/xlink" width="70" zoomAndPan="magnify" viewBox="0 0 52.5 52.499999" height="70" preserveAspectRatio="xMidYMid meet" version="1.0"><defs><clipPath id="85ad3ea958"><path d="M 6.097656 7.425781 L 47.347656 7.425781 L 47.347656 42.675781 L 6.097656 42.675781 Z M 6.097656 7.425781 " clip-rule="nonzero"/></clipPath></defs><g clip-path="url(#85ad3ea958)"><path fill="#dab279" d="M 29.210938 20.722656 L 29.007812 20.847656 C 28.300781 21.273438 27.648438 21.785156 27.070312 22.367188 L 26.886719 22.550781 L 27.054688 22.75 C 28.65625 24.609375 29.539062 26.988281 29.539062 29.445312 C 29.539062 31.902344 28.65625 34.28125 27.054688 36.144531 L 26.886719 36.339844 L 27.070312 36.523438 C 27.648438 37.109375 28.300781 37.621094 29.007812 38.046875 L 29.210938 38.167969 L 29.363281 37.988281 C 31.382812 35.601562 32.492188 32.566406 32.492188 29.445312 C 32.492188 26.324219 31.382812 23.289062 29.363281 20.90625 Z M 29.089844 37.441406 C 28.574219 37.109375 28.089844 36.730469 27.648438 36.308594 C 29.230469 34.375 30.097656 31.949219 30.097656 29.445312 C 30.097656 26.945312 29.230469 24.515625 27.648438 22.585938 C 28.089844 22.160156 28.574219 21.78125 29.089844 21.453125 C 30.925781 23.707031 31.933594 26.535156 31.933594 29.445312 C 31.933594 32.355469 30.925781 35.183594 29.089844 37.441406 Z M 24.328125 38.625 L 24.183594 38.46875 L 23.996094 38.566406 C 22.535156 39.328125 20.953125 39.714844 19.296875 39.714844 C 13.648438 39.714844 9.054688 35.109375 9.054688 29.445312 C 9.054688 23.785156 13.648438 19.179688 19.296875 19.179688 C 20.953125 19.179688 22.535156 19.5625 23.996094 20.324219 L 24.183594 20.421875 L 24.328125 20.265625 C 24.894531 19.660156 25.515625 19.105469 26.175781 18.613281 L 26.507812 18.367188 L 26.15625 18.152344 C 24.09375 16.886719 21.722656 16.21875 19.296875 16.21875 C 12.023438 16.21875 6.105469 22.152344 6.105469 29.445312 C 6.105469 36.738281 12.023438 42.671875 19.296875 42.671875 C 21.722656 42.671875 24.09375 42.003906 26.15625 40.742188 L 26.507812 40.523438 L 26.175781 40.277344 C 25.515625 39.785156 24.890625 39.230469 24.328125 38.625 Z M 19.296875 42.113281 C 12.332031 42.113281 6.664062 36.429688 6.664062 29.445312 C 6.664062 22.460938 12.332031 16.78125 19.296875 16.78125 C 21.480469 16.78125 23.621094 17.34375 25.511719 18.417969 C 25 18.824219 24.515625 19.261719 24.066406 19.730469 C 22.589844 19.003906 20.949219 18.617188 19.296875 18.617188 C 13.34375 18.617188 8.496094 23.476562 8.496094 29.445312 C 8.496094 35.417969 13.34375 40.273438 19.296875 40.273438 C 20.949219 40.273438 22.589844 39.890625 24.066406 39.160156 C 24.515625 39.628906 25 40.070312 25.511719 40.472656 C 23.621094 41.546875 21.480469 42.113281 19.296875 42.113281 Z M 34.148438 16.21875 C 26.871094 16.21875 20.953125 22.152344 20.953125 29.445312 C 20.953125 36.738281 26.871094 42.671875 34.148438 42.671875 C 41.421875 42.671875 47.34375 36.738281 47.34375 29.445312 C 47.34375 22.152344 41.421875 16.21875 34.148438 16.21875 Z M 34.148438 42.113281 C 27.179688 42.113281 21.511719 36.429688 21.511719 29.445312 C 21.511719 22.460938 27.179688 16.78125 34.148438 16.78125 C 41.117188 16.78125 46.785156 22.460938 46.785156 29.445312 C 46.785156 36.429688 41.117188 42.113281 34.148438 42.113281 Z M 34.148438 18.617188 C 28.191406 18.617188 23.347656 23.476562 23.347656 29.445312 C 23.347656 35.417969 28.191406 40.273438 34.148438 40.273438 C 40.105469 40.273438 44.949219 35.417969 44.949219 29.445312 C 44.949219 23.476562 40.105469 18.617188 34.148438 18.617188 Z M 34.148438 39.714844 C 28.5 39.714844 23.90625 35.109375 23.90625 29.445312 C 23.90625 23.785156 28.5 19.179688 34.148438 19.179688 C 39.796875 19.179688 44.390625 23.785156 44.390625 29.445312 C 44.390625 35.109375 39.796875 39.714844 34.148438 39.714844 Z M 26.722656 16.273438 L 30.941406 12.042969 C 31.421875 11.558594 31.6875 10.917969 31.6875 10.234375 C 31.6875 9.550781 31.421875 8.90625 30.941406 8.421875 C 29.945312 7.425781 28.324219 7.425781 27.328125 8.421875 L 26.722656 9.03125 L 26.117188 8.421875 C 25.632812 7.941406 24.992188 7.671875 24.308594 7.671875 C 23.628906 7.671875 22.988281 7.941406 22.503906 8.421875 C 21.507812 9.421875 21.507812 11.046875 22.503906 12.042969 Z M 22.898438 8.820312 C 23.289062 8.429688 23.800781 8.234375 24.308594 8.234375 C 24.820312 8.234375 25.332031 8.429688 25.722656 8.820312 L 26.722656 9.824219 L 27.722656 8.820312 C 28.101562 8.441406 28.601562 8.234375 29.136719 8.234375 C 29.667969 8.234375 30.167969 8.441406 30.546875 8.820312 C 30.921875 9.195312 31.132812 9.699219 31.132812 10.234375 C 31.132812 10.769531 30.921875 11.269531 30.546875 11.648438 L 26.722656 15.480469 L 22.898438 11.648438 C 22.121094 10.867188 22.121094 9.597656 22.898438 8.820312 Z M 22.898438 8.820312 " fill-opacity="1" fill-rule="nonzero"/></g></svg>