<svg xmlns="http://www.w3.org/2000/svg" xmlns:xlink="http://www.w3.org/1999/xlink" width="70" zoomAndPan="magnify" viewBox="0 0 52.5 52.499999" height="70" preserveAspectRatio="xMidYMid meet" version="1.0"><defs><clipPath id="7eb21a909e"><path d="M 25 2.621094 L 27 2.621094 L 27 7 L 25 7 Z M 25 2.621094 " clip-rule="nonzero"/></clipPath><clipPath id="fed424fcdd"><path d="M 27 8 L 47 8 L 47 49.871094 L 27 49.871094 Z M 27 8 " clip-rule="nonzero"/></clipPath><clipPath id="911b88514b"><path d="M 5.25 8 L 26 8 L 26 49.871094 L 5.25 49.871094 Z M 5.25 8 " clip-rule="nonzero"/></clipPath></defs><g clip-path="url(#7eb21a909e)"><path fill="#dab279" d="M 25.523438 3.203125 L 25.523438 6.164062 C 25.523438 6.511719 25.757812 6.742188 26.105469 6.742188 C 26.394531 6.742188 26.683594 6.511719 26.683594 6.164062 L 26.742188 3.203125 C 26.742188 2.851562 26.511719 2.621094 26.164062 2.621094 C 25.816406 2.621094 25.582031 2.910156 25.523438 3.203125 Z M 25.523438 3.203125 " fill-opacity="1" fill-rule="nonzero"/></g><path fill="#dab279" d="M 29.761719 5.234375 L 27.613281 7.265625 C 27.382812 7.496094 27.382812 7.84375 27.613281 8.078125 C 27.730469 8.195312 27.90625 8.25 28.019531 8.25 C 28.136719 8.25 28.3125 8.195312 28.425781 8.078125 L 30.574219 6.046875 C 30.808594 5.8125 30.808594 5.464844 30.574219 5.234375 C 30.398438 5.058594 29.992188 5.058594 29.761719 5.234375 Z M 29.761719 5.234375 " fill-opacity="1" fill-rule="nonzero"/><path fill="#dab279" d="M 21.636719 5.292969 C 21.402344 5.523438 21.402344 5.871094 21.636719 6.105469 L 23.78125 8.136719 C 23.898438 8.25 24.015625 8.308594 24.1875 8.308594 C 24.363281 8.308594 24.480469 8.25 24.59375 8.136719 C 24.828125 7.902344 24.828125 7.554688 24.59375 7.324219 L 22.449219 5.292969 C 22.214844 5.058594 21.808594 5.058594 21.636719 5.292969 Z M 21.636719 5.292969 " fill-opacity="1" fill-rule="nonzero"/><g clip-path="url(#fed424fcdd)"><path fill="#dab279" d="M 46.1875 46.679688 L 42.53125 47.550781 L 39.339844 34.488281 C 42.589844 33.039062 43.691406 26.476562 41.835938 19.046875 C 41.253906 16.785156 39.628906 11.269531 38.644531 9.179688 C 38.527344 8.949219 38.238281 8.832031 38.003906 8.890625 L 27.554688 11.445312 C 27.265625 11.503906 27.089844 11.734375 27.089844 12.023438 C 27.148438 14.347656 28.253906 19.976562 28.832031 22.242188 C 30.632812 29.554688 34.523438 34.777344 38.003906 34.777344 C 38.0625 34.777344 38.121094 34.777344 38.238281 34.777344 L 41.429688 47.839844 L 37.773438 48.710938 C 37.480469 48.769531 37.25 49.117188 37.367188 49.40625 C 37.425781 49.695312 37.65625 49.871094 37.945312 49.871094 C 38.003906 49.871094 38.0625 49.871094 38.0625 49.871094 L 46.480469 47.839844 C 46.769531 47.78125 47 47.433594 46.886719 47.144531 C 46.828125 46.792969 46.480469 46.621094 46.1875 46.679688 Z M 37.773438 10.050781 C 38.179688 10.980469 38.644531 12.316406 39.105469 13.707031 L 28.773438 16.144531 C 28.542969 14.695312 28.3125 13.359375 28.253906 12.375 Z M 29.9375 21.894531 C 29.703125 20.847656 29.296875 19.105469 28.949219 17.308594 L 39.398438 14.8125 C 39.921875 16.550781 40.382812 18.234375 40.617188 19.222656 C 42.359375 26.246094 41.3125 32.746094 38.410156 33.445312 C 35.566406 34.257812 31.675781 28.917969 29.9375 21.894531 Z M 29.9375 21.894531 " fill-opacity="1" fill-rule="nonzero"/></g><path fill="#dab279" d="M 39.164062 29.84375 C 39.804688 28.335938 40.035156 23.808594 38.699219 18.351562 C 38.644531 18.0625 38.292969 17.828125 38.003906 17.945312 C 37.714844 18.003906 37.480469 18.351562 37.597656 18.640625 C 38.875 23.75 38.644531 28.105469 38.121094 29.378906 C 38.003906 29.671875 38.121094 30.019531 38.410156 30.136719 C 38.46875 30.195312 38.585938 30.195312 38.644531 30.195312 C 38.875 30.25 39.050781 30.078125 39.164062 29.84375 Z M 39.164062 29.84375 " fill-opacity="1" fill-rule="nonzero"/><g clip-path="url(#911b88514b)"><path fill="#dab279" d="M 25.351562 11.96875 C 25.351562 11.675781 25.175781 11.445312 24.886719 11.386719 L 14.4375 8.832031 C 14.148438 8.773438 13.914062 8.890625 13.800781 9.121094 C 12.8125 11.210938 11.1875 16.726562 10.605469 18.992188 C 9.675781 22.648438 9.503906 26.304688 10.027344 29.207031 C 10.492188 31.933594 11.59375 33.792969 13.160156 34.488281 L 9.96875 47.609375 L 6.253906 46.679688 C 5.960938 46.621094 5.613281 46.792969 5.554688 47.085938 C 5.5 47.375 5.671875 47.722656 5.960938 47.78125 L 14.378906 49.8125 C 14.4375 49.8125 14.496094 49.8125 14.496094 49.8125 C 14.785156 49.8125 15.019531 49.640625 15.074219 49.347656 C 15.132812 49.058594 14.960938 48.710938 14.667969 48.652344 L 11.070312 47.839844 L 14.261719 34.722656 C 14.320312 34.722656 14.4375 34.722656 14.496094 34.722656 C 16.121094 34.722656 17.863281 33.617188 19.429688 31.46875 C 21.230469 29.148438 22.679688 25.839844 23.609375 22.125 C 24.1875 19.917969 25.292969 14.289062 25.351562 11.96875 Z M 14.667969 10.050781 L 24.1875 12.375 C 24.132812 13.359375 23.898438 14.753906 23.667969 16.144531 L 13.335938 13.707031 C 13.800781 12.316406 14.261719 10.980469 14.667969 10.050781 Z M 18.5 30.832031 C 16.933594 32.863281 15.25 33.851562 13.914062 33.558594 C 12.578125 33.210938 11.59375 31.585938 11.128906 29.03125 C 10.664062 26.304688 10.839844 22.820312 11.710938 19.28125 C 11.941406 18.234375 12.40625 16.550781 12.929688 14.871094 L 23.375 17.363281 C 23.027344 19.164062 22.679688 20.90625 22.390625 21.949219 C 21.636719 25.433594 20.242188 28.625 18.5 30.832031 Z M 18.5 30.832031 " fill-opacity="1" fill-rule="nonzero"/></g><path fill="#dab279" d="M 14.4375 17.945312 C 14.148438 17.886719 13.800781 18.0625 13.742188 18.351562 C 12.40625 23.808594 12.695312 28.335938 13.277344 29.84375 C 13.394531 30.078125 13.566406 30.195312 13.800781 30.195312 C 13.855469 30.195312 13.972656 30.195312 14.03125 30.136719 C 14.320312 30.019531 14.496094 29.671875 14.320312 29.378906 C 13.800781 28.046875 13.566406 23.75 14.84375 18.640625 C 14.960938 18.351562 14.785156 18.0625 14.4375 17.945312 Z M 14.4375 17.945312 " fill-opacity="1" fill-rule="nonzero"/><path fill="#dab279" d="M 29.179688 33.617188 C 28.019531 33.152344 26.800781 33.503906 25.871094 34.488281 C 25.003906 33.503906 23.78125 33.152344 22.5625 33.617188 C 21.171875 34.140625 20.011719 35.824219 20.472656 38.03125 C 21.230469 41.628906 25.410156 43.484375 25.582031 43.542969 C 25.640625 43.601562 25.757812 43.601562 25.816406 43.601562 C 25.871094 43.601562 25.988281 43.601562 26.046875 43.542969 C 26.222656 43.484375 30.398438 41.628906 31.15625 38.03125 C 31.734375 35.824219 30.574219 34.140625 29.179688 33.617188 Z M 30.109375 37.738281 C 29.53125 40.292969 26.742188 41.917969 25.871094 42.324219 C 25.058594 41.917969 22.214844 40.292969 21.636719 37.738281 C 21.285156 36.113281 22.101562 35.011719 23.027344 34.664062 C 23.261719 34.605469 23.433594 34.546875 23.667969 34.546875 C 24.304688 34.546875 24.945312 34.953125 25.410156 35.707031 C 25.640625 36.054688 26.222656 36.054688 26.394531 35.707031 C 26.976562 34.722656 27.847656 34.316406 28.773438 34.664062 C 29.644531 35.011719 30.457031 36.113281 30.109375 37.738281 Z M 30.109375 37.738281 " fill-opacity="1" fill-rule="nonzero"/></svg>