<svg xmlns="http://www.w3.org/2000/svg" xmlns:xlink="http://www.w3.org/1999/xlink" width="70" zoomAndPan="magnify" viewBox="0 0 52.5 52.499999" height="70" preserveAspectRatio="xMidYMid meet" version="1.0"><defs><clipPath id="d303cfb899"><path d="M 15 46 L 17 46 L 17 47.421875 L 15 47.421875 Z M 15 46 " clip-rule="nonzero"/></clipPath><clipPath id="d74865797c"><path d="M 26 3.921875 L 27 3.921875 L 27 14 L 26 14 Z M 26 3.921875 " clip-rule="nonzero"/></clipPath><clipPath id="57f68b52d6"><path d="M 3.875 18 L 7 18 L 7 22 L 3.875 22 Z M 3.875 18 " clip-rule="nonzero"/></clipPath><clipPath id="2a0ef5a496"><path d="M 3.875 20 L 7 20 L 7 24 L 3.875 24 Z M 3.875 20 " clip-rule="nonzero"/></clipPath><clipPath id="130108e34c"><path d="M 37 43 L 42 43 L 42 47.421875 L 37 47.421875 Z M 37 43 " clip-rule="nonzero"/></clipPath><clipPath id="bd1cfa3a9a"><path d="M 47 34 L 48.875 34 L 48.875 38 L 47 38 Z M 47 34 " clip-rule="nonzero"/></clipPath><clipPath id="34bd195475"><path d="M 46 35 L 48.875 35 L 48.875 37 L 46 37 Z M 46 35 " clip-rule="nonzero"/></clipPath></defs><path fill="#dab279" d="M 8.539062 9.535156 C 8.34375 9.535156 8.183594 9.378906 8.183594 9.183594 C 8.183594 8.988281 8.335938 8.832031 8.53125 8.832031 L 8.539062 8.832031 C 8.730469 8.832031 8.890625 8.988281 8.890625 9.183594 C 8.890625 9.378906 8.730469 9.535156 8.539062 9.535156 Z M 8.539062 9.535156 " fill-opacity="1" fill-rule="nonzero"/><path fill="#dab279" d="M 41.5 39.703125 C 41.308594 39.703125 41.148438 39.546875 41.148438 39.351562 C 41.148438 39.160156 41.300781 39 41.492188 39 L 41.5 39 C 41.695312 39 41.851562 39.160156 41.851562 39.351562 C 41.851562 39.546875 41.695312 39.703125 41.5 39.703125 Z M 41.5 39.703125 " fill-opacity="1" fill-rule="nonzero"/><g clip-path="url(#d303cfb899)"><path fill="#dab279" d="M 16.253906 47.421875 C 16.058594 47.421875 15.898438 47.265625 15.898438 47.070312 C 15.898438 46.875 16.050781 46.71875 16.246094 46.71875 L 16.253906 46.71875 C 16.445312 46.71875 16.605469 46.875 16.605469 47.070312 C 16.605469 47.265625 16.445312 47.421875 16.253906 47.421875 Z M 16.253906 47.421875 " fill-opacity="1" fill-rule="nonzero"/></g><path fill="#dab279" d="M 8.539062 36.898438 C 8.34375 36.898438 8.183594 36.738281 8.183594 36.546875 C 8.183594 36.351562 8.335938 36.195312 8.53125 36.195312 L 8.539062 36.195312 C 8.730469 36.195312 8.890625 36.351562 8.890625 36.546875 C 8.890625 36.738281 8.730469 36.898438 8.539062 36.898438 Z M 8.539062 36.898438 " fill-opacity="1" fill-rule="nonzero"/><path fill="#dab279" d="M 47.113281 14.476562 C 46.917969 14.476562 46.757812 14.320312 46.757812 14.128906 C 46.757812 13.933594 46.910156 13.777344 47.105469 13.777344 L 47.113281 13.777344 C 47.304688 13.777344 47.460938 13.933594 47.460938 14.128906 C 47.460938 14.320312 47.304688 14.476562 47.113281 14.476562 Z M 47.113281 14.476562 " fill-opacity="1" fill-rule="nonzero"/><path fill="#dab279" d="M 26.402344 44.613281 C 17.894531 44.613281 10.972656 37.691406 10.972656 29.179688 C 10.972656 20.667969 17.894531 13.742188 26.402344 13.742188 C 30.636719 13.742188 34.585938 15.425781 37.519531 18.476562 C 37.65625 18.617188 37.648438 18.839844 37.511719 18.972656 C 37.371094 19.109375 37.152344 19.105469 37.015625 18.964844 C 34.210938 16.050781 30.441406 14.445312 26.402344 14.445312 C 18.28125 14.445312 11.671875 21.054688 11.671875 29.179688 C 11.671875 37.304688 18.28125 43.914062 26.402344 43.914062 C 34.523438 43.914062 41.128906 37.304688 41.128906 29.179688 C 41.128906 27.15625 40.726562 25.195312 39.933594 23.351562 C 39.855469 23.171875 39.9375 22.96875 40.113281 22.890625 C 40.292969 22.8125 40.5 22.894531 40.574219 23.074219 C 41.410156 25.003906 41.832031 27.058594 41.832031 29.179688 C 41.832031 37.691406 34.910156 44.613281 26.402344 44.613281 Z M 26.402344 44.613281 " fill-opacity="1" fill-rule="nonzero"/><path fill="#dab279" d="M 29.972656 42.917969 C 29.949219 42.917969 29.925781 42.917969 29.902344 42.910156 C 29.714844 42.875 29.589844 42.6875 29.628906 42.5 C 29.644531 42.429688 31.023438 35.457031 31.023438 29.179688 C 31.023438 22.898438 29.644531 15.929688 29.628906 15.859375 C 29.589844 15.667969 29.714844 15.484375 29.902344 15.445312 C 30.089844 15.40625 30.277344 15.53125 30.316406 15.722656 C 30.332031 15.792969 31.726562 22.828125 31.726562 29.179688 C 31.726562 35.527344 30.332031 42.566406 30.316406 42.636719 C 30.285156 42.804688 30.136719 42.917969 29.972656 42.917969 Z M 29.972656 42.917969 " fill-opacity="1" fill-rule="nonzero"/><path fill="#dab279" d="M 33.480469 41.515625 C 33.441406 41.515625 33.402344 41.507812 33.363281 41.496094 C 33.179688 41.429688 33.085938 41.230469 33.148438 41.046875 C 33.171875 40.988281 35.234375 35.082031 35.234375 29.179688 C 35.234375 23.277344 33.171875 17.371094 33.148438 17.3125 C 33.085938 17.128906 33.179688 16.925781 33.363281 16.863281 C 33.546875 16.796875 33.746094 16.894531 33.8125 17.078125 C 33.832031 17.136719 35.933594 23.152344 35.933594 29.179688 C 35.933594 35.203125 33.832031 41.222656 33.8125 41.28125 C 33.757812 41.425781 33.625 41.515625 33.480469 41.515625 Z M 33.480469 41.515625 " fill-opacity="1" fill-rule="nonzero"/><path fill="#dab279" d="M 36.988281 38.722656 C 36.9375 38.722656 36.886719 38.714844 36.839844 38.691406 C 36.664062 38.609375 36.585938 38.402344 36.667969 38.226562 C 36.6875 38.179688 38.738281 33.671875 38.738281 29.179688 C 38.738281 27.804688 38.550781 26.296875 38.175781 24.699219 C 38.132812 24.511719 38.25 24.324219 38.4375 24.277344 C 38.632812 24.234375 38.816406 24.351562 38.859375 24.539062 C 39.246094 26.191406 39.441406 27.75 39.441406 29.179688 C 39.441406 33.832031 37.390625 38.332031 37.304688 38.519531 C 37.246094 38.648438 37.117188 38.722656 36.988281 38.722656 Z M 36.988281 38.722656 " fill-opacity="1" fill-rule="nonzero"/><path fill="#dab279" d="M 21.65625 26.371094 C 21.652344 26.371094 21.644531 26.371094 21.636719 26.371094 C 21.445312 26.359375 21.296875 26.195312 21.308594 26 C 21.628906 20.699219 22.605469 15.769531 22.617188 15.722656 C 22.65625 15.53125 22.84375 15.410156 23.027344 15.445312 C 23.21875 15.484375 23.34375 15.667969 23.304688 15.859375 C 23.292969 15.90625 22.324219 20.792969 22.007812 26.042969 C 21.996094 26.230469 21.84375 26.371094 21.65625 26.371094 Z M 21.65625 26.371094 " fill-opacity="1" fill-rule="nonzero"/><path fill="#dab279" d="M 22.960938 42.917969 C 22.796875 42.917969 22.648438 42.804688 22.617188 42.636719 C 22.605469 42.585938 21.628906 37.65625 21.308594 32.359375 C 21.296875 32.164062 21.445312 31.996094 21.636719 31.984375 C 21.851562 31.96875 21.996094 32.121094 22.007812 32.316406 C 22.324219 37.566406 23.292969 42.449219 23.304688 42.5 C 23.34375 42.6875 23.21875 42.875 23.027344 42.910156 C 23.003906 42.917969 22.984375 42.917969 22.960938 42.917969 Z M 22.960938 42.917969 " fill-opacity="1" fill-rule="nonzero"/><path fill="#dab279" d="M 19.453125 41.515625 C 19.308594 41.515625 19.175781 41.425781 19.121094 41.28125 C 19.101562 41.222656 17 35.203125 17 29.179688 C 17 23.15625 19.101562 17.136719 19.121094 17.078125 C 19.1875 16.894531 19.386719 16.800781 19.570312 16.863281 C 19.753906 16.925781 19.847656 17.128906 19.785156 17.308594 C 19.761719 17.371094 17.699219 23.277344 17.699219 29.179688 C 17.699219 35.082031 19.761719 40.988281 19.785156 41.046875 C 19.847656 41.230469 19.753906 41.429688 19.570312 41.496094 C 19.53125 41.507812 19.492188 41.515625 19.453125 41.515625 Z M 19.453125 41.515625 " fill-opacity="1" fill-rule="nonzero"/><path fill="#dab279" d="M 15.945312 38.722656 C 15.8125 38.722656 15.6875 38.648438 15.628906 38.519531 C 15.542969 38.332031 13.492188 33.832031 13.492188 29.179688 C 13.492188 24.527344 15.542969 20.027344 15.628906 19.839844 C 15.707031 19.660156 15.917969 19.585938 16.09375 19.667969 C 16.269531 19.746094 16.347656 19.957031 16.265625 20.132812 C 16.246094 20.175781 14.195312 24.683594 14.195312 29.179688 C 14.195312 33.671875 16.246094 38.179688 16.265625 38.226562 C 16.347656 38.402344 16.269531 38.609375 16.09375 38.691406 C 16.046875 38.714844 15.996094 38.722656 15.945312 38.722656 Z M 15.945312 38.722656 " fill-opacity="1" fill-rule="nonzero"/><path fill="#dab279" d="M 19.035156 29.53125 L 12.382812 29.53125 C 12.1875 29.53125 12.03125 29.371094 12.03125 29.179688 C 12.03125 28.984375 12.1875 28.828125 12.382812 28.828125 L 19.035156 28.828125 C 19.230469 28.828125 19.386719 28.984375 19.386719 29.179688 C 19.386719 29.371094 19.230469 29.53125 19.035156 29.53125 Z M 19.035156 29.53125 " fill-opacity="1" fill-rule="nonzero"/><path fill="#dab279" d="M 40.550781 29.53125 L 23.945312 29.53125 C 23.753906 29.53125 23.59375 29.371094 23.59375 29.179688 C 23.59375 28.984375 23.753906 28.828125 23.945312 28.828125 L 40.550781 28.828125 C 40.746094 28.828125 40.902344 28.984375 40.902344 29.179688 C 40.902344 29.371094 40.746094 29.53125 40.550781 29.53125 Z M 40.550781 29.53125 " fill-opacity="1" fill-rule="nonzero"/><path fill="#dab279" d="M 26.410156 34.382812 C 20.0625 34.382812 13.027344 32.988281 12.957031 32.972656 C 12.765625 32.933594 12.644531 32.75 12.679688 32.558594 C 12.71875 32.371094 12.910156 32.246094 13.09375 32.285156 C 13.164062 32.296875 20.132812 33.679688 26.410156 33.679688 C 32.6875 33.679688 39.652344 32.296875 39.722656 32.285156 C 39.910156 32.246094 40.097656 32.371094 40.136719 32.558594 C 40.175781 32.75 40.050781 32.933594 39.859375 32.972656 C 39.789062 32.988281 32.753906 34.382812 26.410156 34.382812 Z M 26.410156 34.382812 " fill-opacity="1" fill-rule="nonzero"/><path fill="#dab279" d="M 26.410156 38.59375 C 20.386719 38.59375 14.371094 36.488281 14.308594 36.46875 C 14.128906 36.402344 14.03125 36.203125 14.097656 36.019531 C 14.164062 35.835938 14.363281 35.742188 14.542969 35.804688 C 14.605469 35.828125 20.507812 37.890625 26.410156 37.890625 C 32.308594 37.890625 38.214844 35.828125 38.273438 35.804688 C 38.453125 35.742188 38.652344 35.835938 38.71875 36.019531 C 38.785156 36.203125 38.6875 36.402344 38.507812 36.46875 C 38.445312 36.488281 32.429688 38.59375 26.410156 38.59375 Z M 26.410156 38.59375 " fill-opacity="1" fill-rule="nonzero"/><path fill="#dab279" d="M 26.410156 42.101562 C 21.757812 42.101562 17.261719 40.050781 17.070312 39.964844 C 16.894531 39.882812 16.820312 39.671875 16.898438 39.5 C 16.980469 39.320312 17.191406 39.246094 17.363281 39.328125 C 17.410156 39.347656 21.914062 41.398438 26.410156 41.398438 C 30.902344 41.398438 35.40625 39.347656 35.453125 39.328125 C 35.625 39.246094 35.835938 39.320312 35.917969 39.5 C 35.996094 39.675781 35.921875 39.882812 35.746094 39.964844 C 35.554688 40.050781 31.058594 42.101562 26.410156 42.101562 Z M 26.410156 42.101562 " fill-opacity="1" fill-rule="nonzero"/><path fill="#dab279" d="M 13.023438 25.964844 C 12.859375 25.964844 12.714844 25.847656 12.679688 25.683594 C 12.644531 25.492188 12.765625 25.308594 12.957031 25.269531 C 13.027344 25.253906 20.0625 23.859375 26.410156 23.859375 C 32.753906 23.859375 39.789062 25.253906 39.859375 25.269531 C 40.050781 25.308594 40.175781 25.492188 40.136719 25.683594 C 40.097656 25.871094 39.910156 25.996094 39.722656 25.957031 C 39.652344 25.941406 32.683594 24.558594 26.410156 24.558594 C 20.128906 24.558594 13.164062 25.941406 13.09375 25.957031 C 13.070312 25.960938 13.046875 25.964844 13.023438 25.964844 Z M 13.023438 25.964844 " fill-opacity="1" fill-rule="nonzero"/><path fill="#dab279" d="M 14.425781 22.457031 C 14.28125 22.457031 14.148438 22.367188 14.097656 22.222656 C 14.03125 22.039062 14.128906 21.839844 14.3125 21.773438 C 14.371094 21.753906 20.386719 19.648438 26.410156 19.648438 C 30.046875 19.648438 33.648438 20.402344 36.027344 21.03125 C 36.214844 21.082031 36.328125 21.273438 36.277344 21.460938 C 36.226562 21.648438 36.039062 21.761719 35.847656 21.710938 C 33.507812 21.089844 29.972656 20.351562 26.410156 20.351562 C 20.507812 20.351562 14.605469 22.414062 14.542969 22.4375 C 14.503906 22.449219 14.464844 22.457031 14.425781 22.457031 Z M 14.425781 22.457031 " fill-opacity="1" fill-rule="nonzero"/><path fill="#dab279" d="M 17.21875 18.949219 C 17.085938 18.949219 16.957031 18.871094 16.898438 18.742188 C 16.820312 18.566406 16.894531 18.359375 17.070312 18.277344 C 17.261719 18.191406 21.757812 16.140625 26.410156 16.140625 C 31.058594 16.140625 35.554688 18.191406 35.746094 18.277344 C 35.921875 18.359375 35.996094 18.566406 35.917969 18.742188 C 35.835938 18.921875 35.625 18.996094 35.453125 18.914062 C 35.40625 18.894531 30.902344 16.84375 26.410156 16.84375 C 21.917969 16.84375 17.410156 18.894531 17.363281 18.914062 C 17.316406 18.9375 17.269531 18.949219 17.21875 18.949219 Z M 17.21875 18.949219 " fill-opacity="1" fill-rule="nonzero"/><path fill="#dab279" d="M 26.410156 43.5625 C 26.214844 43.5625 26.058594 43.40625 26.058594 43.210938 L 26.058594 15.03125 C 26.058594 14.835938 26.214844 14.679688 26.410156 14.679688 C 26.601562 14.679688 26.757812 14.835938 26.757812 15.03125 L 26.757812 43.210938 C 26.757812 43.40625 26.601562 43.5625 26.410156 43.5625 Z M 26.410156 43.5625 " fill-opacity="1" fill-rule="nonzero"/><g clip-path="url(#d74865797c)"><path fill="#dab279" d="M 26.402344 13.042969 C 26.207031 13.042969 26.050781 12.886719 26.050781 12.691406 L 26.050781 4.273438 C 26.050781 4.078125 26.207031 3.921875 26.402344 3.921875 C 26.59375 3.921875 26.75 4.078125 26.75 4.273438 L 26.75 12.691406 C 26.75 12.886719 26.59375 13.042969 26.402344 13.042969 Z M 26.402344 13.042969 " fill-opacity="1" fill-rule="nonzero"/></g><path fill="#dab279" d="M 5.710938 23.566406 C 5.519531 23.566406 5.359375 23.410156 5.359375 23.214844 C 5.359375 21.585938 6.898438 20.828125 6.960938 20.792969 C 7.136719 20.710938 7.34375 20.785156 7.429688 20.957031 C 7.511719 21.132812 7.441406 21.339844 7.269531 21.425781 C 7.21875 21.449219 6.0625 22.03125 6.0625 23.214844 C 6.0625 23.410156 5.90625 23.566406 5.710938 23.566406 Z M 5.710938 23.566406 " fill-opacity="1" fill-rule="nonzero"/><path fill="#dab279" d="M 7.113281 21.460938 C 7.0625 21.460938 7.011719 21.449219 6.960938 21.425781 C 6.898438 21.394531 5.359375 20.636719 5.359375 19.003906 C 5.359375 18.8125 5.519531 18.65625 5.710938 18.65625 C 5.90625 18.65625 6.0625 18.8125 6.0625 19.003906 C 6.0625 20.199219 7.253906 20.789062 7.265625 20.792969 C 7.441406 20.878906 7.515625 21.089844 7.429688 21.261719 C 7.371094 21.386719 7.246094 21.460938 7.113281 21.460938 Z M 7.113281 21.460938 " fill-opacity="1" fill-rule="nonzero"/><g clip-path="url(#57f68b52d6)"><path fill="#dab279" d="M 4.308594 21.460938 C 4.179688 21.460938 4.054688 21.390625 3.992188 21.265625 C 3.910156 21.089844 3.980469 20.878906 4.15625 20.796875 C 4.203125 20.769531 5.359375 20.191406 5.359375 19.003906 C 5.359375 18.8125 5.519531 18.65625 5.710938 18.65625 C 5.90625 18.65625 6.0625 18.8125 6.0625 19.003906 C 6.0625 20.636719 4.527344 21.394531 4.460938 21.425781 C 4.414062 21.449219 4.359375 21.460938 4.308594 21.460938 Z M 4.308594 21.460938 " fill-opacity="1" fill-rule="nonzero"/></g><g clip-path="url(#2a0ef5a496)"><path fill="#dab279" d="M 5.710938 23.566406 C 5.519531 23.566406 5.359375 23.410156 5.359375 23.214844 C 5.359375 22.023438 4.167969 21.433594 4.15625 21.425781 C 3.980469 21.34375 3.910156 21.132812 3.992188 20.957031 C 4.078125 20.78125 4.289062 20.710938 4.460938 20.792969 C 4.527344 20.828125 6.0625 21.585938 6.0625 23.214844 C 6.0625 23.410156 5.90625 23.566406 5.710938 23.566406 Z M 5.710938 23.566406 " fill-opacity="1" fill-rule="nonzero"/></g><path fill="#dab279" d="M 38.675781 23.566406 C 38.480469 23.566406 38.324219 23.410156 38.324219 23.214844 C 38.324219 21.585938 39.859375 20.828125 39.925781 20.792969 C 40.097656 20.710938 40.308594 20.785156 40.390625 20.957031 C 40.476562 21.132812 40.402344 21.339844 40.230469 21.425781 C 40.179688 21.449219 39.023438 22.03125 39.023438 23.214844 C 39.023438 23.410156 38.867188 23.566406 38.675781 23.566406 Z M 38.675781 23.566406 " fill-opacity="1" fill-rule="nonzero"/><path fill="#dab279" d="M 40.078125 21.460938 C 40.027344 21.460938 39.972656 21.449219 39.925781 21.425781 C 39.859375 21.394531 38.324219 20.636719 38.324219 19.003906 C 38.324219 18.8125 38.480469 18.65625 38.675781 18.65625 C 38.867188 18.65625 39.023438 18.8125 39.023438 19.003906 C 39.023438 20.199219 40.21875 20.789062 40.230469 20.792969 C 40.402344 20.878906 40.476562 21.089844 40.390625 21.261719 C 40.332031 21.386719 40.207031 21.460938 40.078125 21.460938 Z M 40.078125 21.460938 " fill-opacity="1" fill-rule="nonzero"/><path fill="#dab279" d="M 37.273438 21.460938 C 37.140625 21.460938 37.015625 21.390625 36.957031 21.265625 C 36.871094 21.089844 36.945312 20.878906 37.117188 20.796875 C 37.167969 20.769531 38.324219 20.191406 38.324219 19.003906 C 38.324219 18.8125 38.480469 18.65625 38.675781 18.65625 C 38.867188 18.65625 39.023438 18.8125 39.023438 19.003906 C 39.023438 20.636719 37.488281 21.394531 37.421875 21.425781 C 37.375 21.449219 37.324219 21.460938 37.273438 21.460938 Z M 37.273438 21.460938 " fill-opacity="1" fill-rule="nonzero"/><path fill="#dab279" d="M 38.675781 23.566406 C 38.480469 23.566406 38.324219 23.410156 38.324219 23.214844 C 38.324219 22.023438 37.132812 21.433594 37.121094 21.425781 C 36.945312 21.34375 36.871094 21.132812 36.957031 20.957031 C 37.039062 20.78125 37.253906 20.710938 37.421875 20.792969 C 37.488281 20.828125 39.023438 21.585938 39.023438 23.214844 C 39.023438 23.410156 38.867188 23.566406 38.675781 23.566406 Z M 38.675781 23.566406 " fill-opacity="1" fill-rule="nonzero"/><path fill="#dab279" d="M 21.492188 31.574219 C 21.296875 31.574219 21.140625 31.417969 21.140625 31.226562 C 21.140625 29.59375 22.675781 28.835938 22.742188 28.804688 C 22.917969 28.71875 23.125 28.792969 23.210938 28.964844 C 23.292969 29.140625 23.222656 29.351562 23.046875 29.433594 C 23 29.460938 21.84375 30.042969 21.84375 31.226562 C 21.84375 31.417969 21.683594 31.574219 21.492188 31.574219 Z M 21.492188 31.574219 " fill-opacity="1" fill-rule="nonzero"/><path fill="#dab279" d="M 22.894531 29.472656 C 22.84375 29.472656 22.789062 29.460938 22.742188 29.4375 C 22.675781 29.40625 21.140625 28.644531 21.140625 27.015625 C 21.140625 26.820312 21.296875 26.664062 21.492188 26.664062 C 21.683594 26.664062 21.84375 26.820312 21.84375 27.015625 C 21.84375 28.207031 23.035156 28.796875 23.046875 28.804688 C 23.222656 28.886719 23.292969 29.097656 23.210938 29.273438 C 23.148438 29.398438 23.023438 29.472656 22.894531 29.472656 Z M 22.894531 29.472656 " fill-opacity="1" fill-rule="nonzero"/><path fill="#dab279" d="M 20.089844 29.472656 C 19.960938 29.472656 19.835938 29.398438 19.773438 29.273438 C 19.691406 29.101562 19.761719 28.890625 19.933594 28.804688 C 19.984375 28.78125 21.140625 28.199219 21.140625 27.015625 C 21.140625 26.820312 21.296875 26.664062 21.492188 26.664062 C 21.683594 26.664062 21.84375 26.820312 21.84375 27.015625 C 21.84375 28.644531 20.308594 29.40625 20.242188 29.4375 C 20.191406 29.460938 20.140625 29.472656 20.089844 29.472656 Z M 20.089844 29.472656 " fill-opacity="1" fill-rule="nonzero"/><path fill="#dab279" d="M 21.492188 31.574219 C 21.296875 31.574219 21.140625 31.417969 21.140625 31.226562 C 21.140625 30.03125 19.949219 29.441406 19.9375 29.4375 C 19.761719 29.351562 19.6875 29.140625 19.773438 28.96875 C 19.855469 28.792969 20.070312 28.71875 20.242188 28.804688 C 20.308594 28.835938 21.84375 29.59375 21.84375 31.226562 C 21.84375 31.417969 21.683594 31.574219 21.492188 31.574219 Z M 21.492188 31.574219 " fill-opacity="1" fill-rule="nonzero"/><path fill="#dab279" d="M 20.605469 10.867188 C 20.550781 10.867188 20.492188 10.855469 20.441406 10.828125 L 19.738281 10.457031 L 19.035156 10.828125 C 18.917969 10.890625 18.773438 10.878906 18.664062 10.800781 C 18.558594 10.722656 18.503906 10.589844 18.523438 10.457031 L 18.660156 9.675781 L 18.089844 9.121094 C 17.996094 9.027344 17.960938 8.886719 18.003906 8.757812 C 18.042969 8.632812 18.152344 8.539062 18.285156 8.519531 L 19.070312 8.40625 L 19.425781 7.691406 C 19.542969 7.453125 19.933594 7.453125 20.050781 7.691406 L 20.40625 8.40625 L 21.191406 8.519531 C 21.324219 8.539062 21.433594 8.632812 21.472656 8.757812 C 21.515625 8.886719 21.480469 9.027344 21.386719 9.121094 L 20.816406 9.675781 L 20.953125 10.457031 C 20.972656 10.589844 20.917969 10.722656 20.8125 10.800781 C 20.75 10.847656 20.679688 10.867188 20.605469 10.867188 Z M 19.738281 9.710938 C 19.792969 9.710938 19.851562 9.722656 19.902344 9.75 L 20.140625 9.875 L 20.09375 9.613281 C 20.074219 9.496094 20.113281 9.382812 20.195312 9.300781 L 20.386719 9.113281 L 20.121094 9.074219 C 20.007812 9.058594 19.90625 8.984375 19.855469 8.882812 L 19.738281 8.640625 L 19.617188 8.882812 C 19.570312 8.984375 19.46875 9.058594 19.355469 9.074219 L 19.089844 9.113281 L 19.28125 9.300781 C 19.363281 9.382812 19.402344 9.496094 19.382812 9.613281 L 19.335938 9.875 L 19.574219 9.75 C 19.625 9.722656 19.683594 9.710938 19.738281 9.710938 Z M 19.738281 9.710938 " fill-opacity="1" fill-rule="nonzero"/><g clip-path="url(#130108e34c)"><path fill="#dab279" d="M 40.242188 47.351562 C 40.1875 47.351562 40.132812 47.339844 40.078125 47.3125 L 39.375 46.941406 L 38.671875 47.3125 C 38.554688 47.375 38.410156 47.363281 38.304688 47.285156 C 38.195312 47.207031 38.140625 47.074219 38.164062 46.941406 L 38.296875 46.160156 L 37.726562 45.601562 C 37.632812 45.511719 37.597656 45.371094 37.640625 45.242188 C 37.679688 45.117188 37.789062 45.023438 37.921875 45.003906 L 38.710938 44.890625 L 39.0625 44.175781 C 39.121094 44.058594 39.242188 43.980469 39.375 43.980469 C 39.507812 43.980469 39.632812 44.058594 39.691406 44.175781 L 40.042969 44.890625 L 40.828125 45.003906 C 40.960938 45.023438 41.070312 45.117188 41.113281 45.242188 C 41.152344 45.371094 41.117188 45.511719 41.023438 45.601562 L 40.453125 46.160156 L 40.589844 46.941406 C 40.609375 47.074219 40.558594 47.207031 40.449219 47.285156 C 40.386719 47.328125 40.316406 47.351562 40.242188 47.351562 Z M 39.375 46.195312 C 39.433594 46.195312 39.488281 46.207031 39.539062 46.234375 L 39.777344 46.359375 L 39.730469 46.09375 C 39.710938 45.980469 39.75 45.863281 39.832031 45.785156 L 40.023438 45.597656 L 39.757812 45.558594 C 39.644531 45.542969 39.546875 45.46875 39.496094 45.367188 L 39.375 45.125 L 39.257812 45.367188 C 39.207031 45.46875 39.105469 45.542969 38.992188 45.558594 L 38.726562 45.597656 L 38.917969 45.785156 C 39 45.863281 39.039062 45.980469 39.019531 46.09375 L 38.972656 46.359375 L 39.210938 46.234375 C 39.261719 46.207031 39.320312 46.195312 39.375 46.195312 Z M 39.375 46.195312 " fill-opacity="1" fill-rule="nonzero"/></g><g clip-path="url(#bd1cfa3a9a)"><path fill="#dab279" d="M 47.792969 37.597656 C 47.597656 37.597656 47.441406 37.441406 47.441406 37.246094 L 47.441406 34.441406 C 47.441406 34.246094 47.597656 34.089844 47.792969 34.089844 C 47.984375 34.089844 48.140625 34.246094 48.140625 34.441406 L 48.140625 37.246094 C 48.140625 37.441406 47.984375 37.597656 47.792969 37.597656 Z M 47.792969 37.597656 " fill-opacity="1" fill-rule="nonzero"/></g><g clip-path="url(#34bd195475)"><path fill="#dab279" d="M 48.492188 36.195312 L 47.089844 36.195312 C 46.894531 36.195312 46.738281 36.039062 46.738281 35.84375 C 46.738281 35.652344 46.894531 35.492188 47.089844 35.492188 L 48.492188 35.492188 C 48.6875 35.492188 48.84375 35.652344 48.84375 35.84375 C 48.84375 36.039062 48.6875 36.195312 48.492188 36.195312 Z M 48.492188 36.195312 " fill-opacity="1" fill-rule="nonzero"/></g><path fill="#dab279" d="M 7.113281 46.019531 C 6.921875 46.019531 6.761719 45.859375 6.761719 45.667969 L 6.761719 42.859375 C 6.761719 42.667969 6.921875 42.507812 7.113281 42.507812 C 7.308594 42.507812 7.464844 42.667969 7.464844 42.859375 L 7.464844 45.667969 C 7.464844 45.859375 7.308594 46.019531 7.113281 46.019531 Z M 7.113281 46.019531 " fill-opacity="1" fill-rule="nonzero"/><path fill="#dab279" d="M 7.816406 44.613281 L 6.414062 44.613281 C 6.21875 44.613281 6.0625 44.457031 6.0625 44.265625 C 6.0625 44.070312 6.21875 43.914062 6.414062 43.914062 L 7.816406 43.914062 C 8.007812 43.914062 8.167969 44.070312 8.167969 44.265625 C 8.167969 44.457031 8.007812 44.613281 7.816406 44.613281 Z M 7.816406 44.613281 " fill-opacity="1" fill-rule="nonzero"/><path fill="#dab279" d="M 37.972656 13.742188 C 37.777344 13.742188 37.621094 13.585938 37.621094 13.394531 L 37.621094 10.585938 C 37.621094 10.390625 37.777344 10.234375 37.972656 10.234375 C 38.167969 10.234375 38.324219 10.390625 38.324219 10.585938 L 38.324219 13.394531 C 38.324219 13.585938 38.167969 13.742188 37.972656 13.742188 Z M 37.972656 13.742188 " fill-opacity="1" fill-rule="nonzero"/><path fill="#dab279" d="M 38.675781 12.339844 L 37.273438 12.339844 C 37.078125 12.339844 36.921875 12.183594 36.921875 11.988281 C 36.921875 11.796875 37.078125 11.640625 37.273438 11.640625 L 38.675781 11.640625 C 38.867188 11.640625 39.023438 11.796875 39.023438 11.988281 C 39.023438 12.183594 38.867188 12.339844 38.675781 12.339844 Z M 38.675781 12.339844 " fill-opacity="1" fill-rule="nonzero"/></svg>