<svg xmlns="http://www.w3.org/2000/svg" xmlns:xlink="http://www.w3.org/1999/xlink" width="70" zoomAndPan="magnify" viewBox="0 0 52.5 52.499999" height="70" preserveAspectRatio="xMidYMid meet" version="1.0"><defs><clipPath id="9bc4a967cc"><path d="M 2.644531 36.039062 L 49.855469 36.039062 L 49.855469 40.738281 L 2.644531 40.738281 Z M 2.644531 36.039062 " clip-rule="nonzero"/></clipPath><clipPath id="f45d4674f7"><path d="M 23 8.488281 L 30 8.488281 L 30 15 L 23 15 Z M 23 8.488281 " clip-rule="nonzero"/></clipPath></defs><g clip-path="url(#9bc4a967cc)"><path fill="#dab279" d="M 47.972656 39.824219 L 4.523438 39.824219 C 3.996094 39.824219 3.570312 39.402344 3.570312 38.882812 L 3.570312 37.945312 C 3.570312 37.425781 3.996094 37.007812 4.523438 37.007812 C 4.542969 37.007812 4.5625 37.003906 4.582031 37.003906 C 4.625 37.003906 4.695312 37.003906 4.742188 37.003906 C 4.761719 37 4.777344 37.003906 4.792969 37 L 47.921875 37.003906 C 47.941406 37.003906 47.957031 37.007812 47.972656 37.007812 C 48.5 37.007812 48.925781 37.425781 48.925781 37.945312 L 48.925781 38.882812 C 48.925781 38.894531 48.925781 38.910156 48.925781 38.921875 C 48.90625 39.421875 48.484375 39.824219 47.972656 39.824219 Z M 49.851562 38.832031 L 49.851562 37.945312 C 49.851562 36.941406 49.039062 36.121094 48.03125 36.089844 C 48.011719 36.089844 47.996094 36.085938 47.972656 36.085938 L 4.792969 36.085938 C 4.78125 36.085938 4.765625 36.089844 4.753906 36.089844 L 4.753906 36.085938 C 4.667969 36.085938 4.589844 36.085938 4.523438 36.089844 C 3.488281 36.089844 2.644531 36.921875 2.644531 37.945312 L 2.644531 38.882812 C 2.644531 39.90625 3.488281 40.738281 4.523438 40.738281 L 47.972656 40.738281 C 49.011719 40.738281 49.855469 39.90625 49.855469 38.882812 C 49.855469 38.863281 49.851562 38.847656 49.851562 38.832031 " fill-opacity="1" fill-rule="nonzero"/></g><path fill="#dab279" d="M 30.621094 25.644531 L 26.25 30.261719 L 21.878906 25.644531 C 21.503906 25.25 21.296875 24.714844 21.296875 24.140625 C 21.296875 22.992188 22.152344 22.058594 23.203125 22.058594 C 24.027344 22.058594 24.527344 22.609375 25.109375 23.246094 L 25.378906 23.535156 C 25.574219 23.789062 25.875 23.945312 26.195312 23.960938 C 26.527344 23.972656 26.828125 23.851562 27.050781 23.617188 L 27.78125 22.84375 C 27.984375 22.625 28.003906 22.601562 28.066406 22.546875 C 28.40625 22.230469 28.84375 22.058594 29.296875 22.058594 C 30.042969 22.058594 30.683594 22.496094 31.003906 23.230469 C 31.371094 24.0625 31.21875 25.011719 30.621094 25.644531 Z M 29.296875 21.140625 C 28.609375 21.140625 27.945312 21.402344 27.433594 21.875 C 27.363281 21.941406 27.339844 21.964844 27.101562 22.21875 L 26.375 22.992188 C 26.328125 23.042969 26.265625 23.046875 26.242188 23.046875 C 26.210938 23.046875 26.15625 23.035156 26.082031 22.945312 L 25.796875 22.632812 C 25.160156 21.933594 24.441406 21.140625 23.203125 21.140625 C 21.640625 21.140625 20.371094 22.488281 20.371094 24.140625 C 20.371094 24.949219 20.667969 25.707031 21.203125 26.269531 L 25.910156 31.246094 C 26 31.335938 26.121094 31.390625 26.25 31.390625 C 26.378906 31.390625 26.5 31.335938 26.585938 31.246094 L 31.296875 26.269531 C 32.148438 25.371094 32.367188 24.035156 31.855469 22.867188 C 31.386719 21.800781 30.40625 21.140625 29.296875 21.140625 " fill-opacity="1" fill-rule="nonzero"/><g clip-path="url(#f45d4674f7)"><path fill="#dab279" d="M 26.246094 9.402344 C 27.4375 9.402344 28.402344 10.359375 28.402344 11.535156 C 28.402344 12.710938 27.4375 13.667969 26.246094 13.667969 C 25.058594 13.667969 24.089844 12.710938 24.089844 11.535156 C 24.089844 10.359375 25.058594 9.402344 26.246094 9.402344 Z M 26.25 14.585938 C 27.945312 14.582031 29.328125 13.214844 29.328125 11.535156 C 29.328125 9.855469 27.945312 8.488281 26.246094 8.488281 C 24.546875 8.488281 23.167969 9.855469 23.167969 11.535156 C 23.167969 13.214844 24.546875 14.585938 26.25 14.585938 " fill-opacity="1" fill-rule="nonzero"/></g><path fill="#dab279" d="M 11.890625 21.71875 C 19.808594 13.890625 32.6875 13.890625 40.605469 21.71875 C 44.164062 25.242188 46.253906 29.882812 46.519531 34.835938 L 5.976562 34.835938 C 6.242188 29.882812 8.332031 25.242188 11.890625 21.71875 Z M 5.492188 35.753906 L 47.003906 35.753906 C 47.128906 35.753906 47.246094 35.703125 47.335938 35.613281 C 47.421875 35.523438 47.46875 35.40625 47.464844 35.28125 C 47.304688 29.917969 45.097656 24.871094 41.257812 21.070312 C 32.980469 12.886719 19.515625 12.882812 11.238281 21.070312 C 7.394531 24.871094 5.191406 29.917969 5.03125 35.28125 C 5.027344 35.40625 5.074219 35.523438 5.160156 35.613281 C 5.25 35.703125 5.367188 35.753906 5.492188 35.753906 " fill-opacity="1" fill-rule="nonzero"/><path fill="#dab279" d="M 31.539062 26.496094 C 31.007812 27.058594 30.445312 27.675781 29.871094 28.304688 C 28.699219 29.59375 27.488281 30.929688 26.367188 31.96875 C 26.296875 32.03125 26.1875 32.027344 26.125 31.960938 L 20.957031 26.496094 C 20.355469 25.863281 20.027344 25.027344 20.027344 24.140625 C 20.027344 22.300781 21.449219 20.800781 23.199219 20.800781 C 23.96875 20.800781 24.710938 21.097656 25.292969 21.632812 C 25.386719 21.71875 25.441406 21.78125 25.59375 21.941406 L 25.910156 22.277344 C 26 22.367188 26.121094 22.421875 26.246094 22.421875 C 26.375 22.421875 26.496094 22.367188 26.585938 22.277344 L 26.902344 21.941406 C 27.054688 21.777344 27.109375 21.71875 27.203125 21.632812 C 27.785156 21.097656 28.527344 20.800781 29.296875 20.800781 C 31.042969 20.800781 32.46875 22.300781 32.46875 24.140625 C 32.46875 25.027344 32.136719 25.863281 31.539062 26.496094 Z M 29.296875 19.886719 C 28.289062 19.886719 27.324219 20.269531 26.570312 20.964844 C 26.46875 21.058594 26.40625 21.125 26.246094 21.292969 C 26.089844 21.125 26.027344 21.0625 25.925781 20.964844 C 25.171875 20.269531 24.207031 19.886719 23.199219 19.886719 C 20.941406 19.886719 19.101562 21.792969 19.101562 24.140625 C 19.101562 25.261719 19.519531 26.320312 20.28125 27.121094 L 25.445312 32.585938 C 25.664062 32.8125 25.953125 32.929688 26.25 32.929688 C 26.515625 32.929688 26.785156 32.832031 26.996094 32.636719 C 28.148438 31.570312 29.375 30.222656 30.5625 28.917969 C 31.128906 28.292969 31.6875 27.679688 32.214844 27.121094 C 32.976562 26.320312 33.394531 25.261719 33.394531 24.140625 C 33.394531 21.792969 31.554688 19.886719 29.296875 19.886719 " fill-opacity="1" fill-rule="nonzero"/></svg>