<svg xmlns="http://www.w3.org/2000/svg" xmlns:xlink="http://www.w3.org/1999/xlink" width="70" zoomAndPan="magnify" viewBox="0 0 52.5 52.499999" height="70" preserveAspectRatio="xMidYMid meet" version="1.0"><defs><clipPath id="a0527f2d16"><path d="M 19 2.210938 L 26 2.210938 L 26 11 L 19 11 Z M 19 2.210938 " clip-rule="nonzero"/></clipPath><clipPath id="e2ce430fec"><path d="M 15 21 L 42 21 L 42 50.210938 L 15 50.210938 Z M 15 21 " clip-rule="nonzero"/></clipPath><clipPath id="dde39d95d2"><path d="M 9.664062 8 L 24 8 L 24 50.210938 L 9.664062 50.210938 Z M 9.664062 8 " clip-rule="nonzero"/></clipPath><clipPath id="b359e99f5b"><path d="M 34 5 L 42.664062 5 L 42.664062 18 L 34 18 Z M 34 5 " clip-rule="nonzero"/></clipPath></defs><g clip-path="url(#a0527f2d16)"><path fill="#dab279" d="M 22.242188 3.070312 C 21.507812 3.070312 20.855469 3.527344 20.492188 4.292969 C 20.3125 4.671875 20.203125 5.457031 20.71875 7.042969 C 20.894531 7.578125 21.324219 8.546875 22.238281 9.023438 C 22.980469 9.40625 23.910156 9.296875 24.402344 8.765625 C 24.730469 8.414062 24.910156 7.871094 24.953125 7.109375 C 25.015625 6.050781 24.820312 5.117188 24.394531 4.40625 C 23.90625 3.601562 23.070312 3.078125 22.261719 3.070312 C 22.253906 3.070312 22.25 3.070312 22.242188 3.070312 Z M 23.183594 10.074219 C 22.738281 10.074219 22.28125 9.96875 21.859375 9.75 C 20.992188 9.300781 20.308594 8.429688 19.941406 7.296875 C 19.453125 5.796875 19.390625 4.699219 19.75 3.9375 C 20.253906 2.878906 21.1875 2.25 22.242188 2.25 C 22.25 2.25 22.261719 2.25 22.269531 2.25 C 23.371094 2.261719 24.453125 2.921875 25.09375 3.980469 C 25.609375 4.832031 25.84375 5.929688 25.773438 7.15625 C 25.71875 8.121094 25.464844 8.832031 25 9.328125 C 24.546875 9.816406 23.878906 10.074219 23.183594 10.074219 " fill-opacity="1" fill-rule="nonzero"/></g><path fill="#dab279" d="M 33.761719 22.339844 C 33.558594 22.339844 33.355469 22.320312 33.148438 22.273438 L 33.210938 21.867188 L 33.121094 22.269531 C 30.558594 21.699219 28.054688 20.757812 25.882812 19.554688 C 25.6875 19.445312 25.613281 19.191406 25.722656 18.992188 C 25.832031 18.796875 26.082031 18.722656 26.28125 18.832031 C 28.386719 20.003906 30.808594 20.914062 33.296875 21.464844 L 33.234375 21.875 L 33.320312 21.472656 C 33.90625 21.597656 34.503906 21.46875 35 21.109375 C 35.519531 20.734375 35.859375 20.152344 35.9375 19.511719 C 35.996094 18.996094 35.878906 18.785156 35.589844 18.269531 L 35.527344 18.160156 C 35.417969 17.960938 35.488281 17.710938 35.6875 17.601562 C 35.882812 17.492188 36.132812 17.5625 36.246094 17.761719 L 36.304688 17.867188 C 36.617188 18.425781 36.839844 18.828125 36.75 19.605469 C 36.648438 20.476562 36.183594 21.269531 35.476562 21.777344 C 34.960938 22.148438 34.371094 22.339844 33.761719 22.339844 " fill-opacity="1" fill-rule="nonzero"/><path fill="#dab279" d="M 31.679688 12.976562 C 31.59375 12.976562 31.503906 12.976562 31.417969 12.96875 C 30.175781 12.890625 28.996094 12.402344 27.953125 11.964844 L 25.429688 10.917969 C 25.21875 10.832031 25.117188 10.589844 25.207031 10.378906 C 25.292969 10.171875 25.53125 10.070312 25.742188 10.160156 L 28.265625 11.207031 C 29.296875 11.636719 30.363281 12.078125 31.46875 12.148438 C 32.558594 12.214844 33.964844 11.769531 34.542969 10.777344 C 34.65625 10.578125 34.90625 10.515625 35.101562 10.628906 C 35.296875 10.742188 35.363281 10.992188 35.25 11.191406 C 34.519531 12.441406 32.945312 12.976562 31.679688 12.976562 " fill-opacity="1" fill-rule="nonzero"/><g clip-path="url(#e2ce430fec)"><path fill="#dab279" d="M 28.785156 50.019531 C 24.425781 50.019531 18.851562 49.347656 16.125 47.449219 C 15.9375 47.320312 15.890625 47.066406 16.019531 46.878906 C 16.148438 46.691406 16.402344 46.644531 16.589844 46.773438 C 18.769531 48.289062 23.496094 49.214844 28.921875 49.199219 C 34.011719 49.179688 38.441406 48.304688 40.375 46.953125 C 39.851562 45.617188 39.144531 43.722656 38.402344 41.722656 C 36.792969 37.410156 34.796875 32.046875 33.621094 29.632812 C 32.84375 28.042969 32.28125 26.683594 32.035156 25.207031 C 31.820312 23.917969 31.910156 23.46875 32.101562 22.480469 C 32.148438 22.246094 32.199219 21.984375 32.253906 21.667969 C 32.292969 21.441406 32.507812 21.292969 32.726562 21.335938 C 32.953125 21.375 33.101562 21.585938 33.058594 21.808594 C 33.003906 22.132812 32.953125 22.402344 32.90625 22.636719 C 32.71875 23.578125 32.652344 23.929688 32.84375 25.070312 C 33.070312 26.449219 33.613281 27.746094 34.355469 29.269531 C 35.550781 31.71875 37.472656 36.882812 39.167969 41.433594 C 39.96875 43.578125 40.722656 45.605469 41.253906 46.945312 C 41.320312 47.109375 41.269531 47.300781 41.128906 47.414062 C 38.789062 49.3125 33.292969 50.007812 28.925781 50.019531 C 28.878906 50.019531 28.832031 50.019531 28.785156 50.019531 " fill-opacity="1" fill-rule="nonzero"/></g><path fill="#dab279" d="M 34.214844 19.023438 C 34.140625 19.023438 34.078125 19.019531 34.015625 19.019531 C 34.007812 19.019531 34.003906 19.019531 33.996094 19.019531 C 33.757812 19.003906 28.183594 18.558594 22.402344 14.046875 C 22.222656 13.90625 22.191406 13.648438 22.328125 13.46875 C 22.46875 13.289062 22.726562 13.257812 22.902344 13.398438 C 28.363281 17.660156 33.769531 18.175781 34.042969 18.199219 C 34.875 18.210938 35.421875 18.113281 35.605469 17.601562 C 35.679688 17.402344 35.667969 17.160156 35.574219 16.929688 C 35.539062 16.835938 35.5 16.738281 35.460938 16.636719 C 35.386719 16.449219 35.308594 16.246094 35.21875 16.035156 C 34.863281 15.195312 34.851562 14.246094 35.195312 13.433594 C 35.425781 12.875 35.769531 12.367188 36.210938 11.917969 C 36.375 11.757812 36.632812 11.753906 36.792969 11.914062 C 36.953125 12.074219 36.957031 12.332031 36.796875 12.496094 C 36.425781 12.867188 36.140625 13.292969 35.949219 13.753906 C 35.691406 14.359375 35.703125 15.074219 35.972656 15.710938 C 36.066406 15.929688 36.148438 16.144531 36.222656 16.339844 C 36.261719 16.441406 36.296875 16.535156 36.335938 16.621094 C 36.5 17.042969 36.515625 17.488281 36.375 17.878906 C 36 18.9375 34.886719 19.023438 34.214844 19.023438 " fill-opacity="1" fill-rule="nonzero"/><g clip-path="url(#dde39d95d2)"><path fill="#dab279" d="M 11.941406 50.171875 C 11.929688 50.171875 11.921875 50.171875 11.910156 50.171875 C 11.15625 50.160156 10.46875 49.769531 10.078125 49.121094 C 9.683594 48.476562 9.652344 47.683594 9.988281 47.007812 C 12.964844 41.003906 15.824219 35.121094 18.085938 29.058594 C 19.171875 25.859375 19.605469 22.160156 19.308594 20.851562 L 18.394531 16.78125 C 18.140625 15.640625 17.820312 14.21875 18.332031 12.921875 C 18.628906 12.175781 19.21875 11.527344 19.792969 10.898438 C 20.410156 10.222656 20.992188 9.582031 21.09375 8.945312 C 21.128906 8.722656 21.339844 8.570312 21.5625 8.605469 C 21.785156 8.644531 21.9375 8.851562 21.902344 9.078125 C 21.761719 9.957031 21.066406 10.71875 20.394531 11.453125 C 19.875 12.027344 19.332031 12.621094 19.09375 13.226562 C 18.707031 14.207031 18.910156 15.335938 19.195312 16.597656 L 20.109375 20.671875 C 20.472656 22.292969 19.902344 26.261719 18.859375 29.335938 C 16.578125 35.445312 13.707031 41.355469 10.722656 47.371094 C 10.511719 47.796875 10.535156 48.289062 10.777344 48.695312 C 11.023438 49.097656 11.453125 49.34375 11.921875 49.351562 C 11.929688 49.351562 11.9375 49.351562 11.941406 49.351562 C 12.433594 49.351562 12.886719 49.085938 13.132812 48.65625 C 16.117188 43.34375 19.597656 36.992188 22.796875 30.167969 C 22.890625 29.960938 23.136719 29.871094 23.339844 29.96875 C 23.546875 30.066406 23.632812 30.308594 23.535156 30.515625 C 20.328125 37.367188 16.835938 43.734375 13.84375 49.058594 C 13.457031 49.746094 12.730469 50.171875 11.941406 50.171875 " fill-opacity="1" fill-rule="nonzero"/></g><path fill="#dab279" d="M 23.164062 30.753906 C 23.109375 30.753906 23.050781 30.742188 22.996094 30.714844 C 22.789062 30.621094 22.699219 30.375 22.792969 30.171875 C 24.515625 26.398438 25.871094 23.417969 26.972656 19.941406 C 27.039062 19.726562 27.269531 19.609375 27.484375 19.675781 C 27.703125 19.746094 27.820312 19.976562 27.753906 20.195312 C 26.636719 23.71875 25.269531 26.714844 23.539062 30.511719 C 23.46875 30.664062 23.320312 30.753906 23.164062 30.753906 " fill-opacity="1" fill-rule="nonzero"/><path fill="#dab279" d="M 31.578125 15.535156 C 31.554688 15.535156 31.535156 15.535156 31.515625 15.53125 C 29.628906 15.246094 27.789062 14.695312 26.054688 13.894531 L 25.824219 13.789062 C 25.292969 13.535156 24.789062 13.300781 24.257812 13.230469 C 23.757812 13.167969 23.121094 13.296875 22.828125 13.734375 C 22.703125 13.925781 22.449219 13.976562 22.261719 13.851562 C 22.074219 13.722656 22.023438 13.46875 22.148438 13.28125 C 22.574219 12.636719 23.445312 12.296875 24.359375 12.414062 C 25.019531 12.5 25.605469 12.777344 26.171875 13.042969 L 26.398438 13.148438 C 28.0625 13.914062 29.828125 14.445312 31.636719 14.71875 C 31.863281 14.753906 32.015625 14.964844 31.980469 15.1875 C 31.953125 15.390625 31.777344 15.535156 31.578125 15.535156 " fill-opacity="1" fill-rule="nonzero"/><g clip-path="url(#b359e99f5b)"><path fill="#dab279" d="M 38.023438 11.480469 C 38.121094 11.480469 38.21875 11.515625 38.296875 11.585938 C 38.417969 11.691406 38.460938 11.867188 38.414062 12.019531 C 37.914062 13.515625 38.320312 15.175781 39.351562 16.167969 C 39.429688 15.191406 39.617188 14.183594 40.117188 13.21875 C 40.195312 13.066406 40.273438 12.910156 40.351562 12.761719 C 40.839844 11.832031 41.339844 10.871094 41.574219 9.863281 C 41.824219 8.769531 41.699219 7.691406 41.238281 6.976562 C 40.910156 6.46875 40.421875 6.148438 39.785156 6.023438 C 38.898438 5.851562 38.273438 6.371094 36.945312 7.570312 L 36.777344 7.71875 C 35.84375 8.488281 35.207031 9.742188 35.316406 10.585938 C 35.378906 11.089844 35.585938 11.4375 35.925781 11.628906 C 36.398438 11.894531 37.121094 11.851562 37.855469 11.515625 C 37.910156 11.492188 37.964844 11.480469 38.023438 11.480469 Z M 39.714844 17.375 C 39.644531 17.375 39.570312 17.355469 39.507812 17.316406 C 37.953125 16.382812 37.140625 14.417969 37.449219 12.523438 C 36.734375 12.695312 36.046875 12.636719 35.527344 12.347656 C 35.128906 12.125 34.628906 11.65625 34.503906 10.695312 C 34.355469 9.554688 35.089844 8.042969 36.246094 7.09375 L 36.398438 6.957031 C 37.734375 5.753906 38.621094 4.957031 39.941406 5.21875 C 40.792969 5.382812 41.480469 5.835938 41.925781 6.53125 C 42.507812 7.429688 42.671875 8.746094 42.371094 10.050781 C 42.113281 11.160156 41.585938 12.167969 41.078125 13.140625 C 41 13.292969 40.917969 13.445312 40.84375 13.59375 C 40.285156 14.679688 40.167969 15.863281 40.125 16.976562 C 40.121094 17.125 40.039062 17.253906 39.910156 17.324219 C 39.851562 17.359375 39.785156 17.375 39.714844 17.375 " fill-opacity="1" fill-rule="nonzero"/></g></svg>