<svg xmlns="http://www.w3.org/2000/svg" xmlns:xlink="http://www.w3.org/1999/xlink" width="70" zoomAndPan="magnify" viewBox="0 0 52.5 52.499999" height="70" preserveAspectRatio="xMidYMid meet" version="1.0"><defs><clipPath id="3ff7bef8dd"><path d="M 1.914062 3.484375 L 50.640625 3.484375 L 50.640625 46.984375 L 1.914062 46.984375 Z M 1.914062 3.484375 " clip-rule="nonzero"/></clipPath><clipPath id="88317bf87c"><path d="M 25 44 L 27 44 L 27 46.984375 L 25 46.984375 Z M 25 44 " clip-rule="nonzero"/></clipPath></defs><g clip-path="url(#3ff7bef8dd)"><path fill="#dab279" d="M 50.03125 30.539062 C 49.925781 30.746094 49.777344 30.894531 49.546875 30.925781 C 49.289062 30.960938 49.03125 30.992188 48.773438 30.992188 C 46.652344 30.976562 44.535156 30.953125 42.414062 30.9375 C 41.207031 30.929688 40 30.9375 38.792969 30.9375 C 38.699219 30.9375 38.601562 30.9375 38.46875 30.9375 C 38.703125 29.972656 38.671875 29.011719 38.726562 28.042969 C 38.851562 28.042969 38.953125 28.042969 39.058594 28.042969 C 41.820312 28.050781 44.582031 28.058594 47.34375 28.070312 C 47.8125 28.070312 48.285156 28.050781 48.75 28.09375 C 49.035156 28.125 49.316406 28.242188 49.589844 28.347656 C 49.820312 28.4375 49.945312 28.652344 50.039062 28.863281 C 50.277344 29.417969 50.3125 29.980469 50.03125 30.539062 Z M 48.585938 31.707031 C 48.535156 32.203125 48.492188 32.699219 48.429688 33.195312 C 48.335938 33.949219 48.238281 34.699219 48.128906 35.449219 C 48.035156 36.074219 47.679688 36.5 47.082031 36.726562 C 46.507812 36.945312 45.910156 37.035156 45.296875 37.046875 C 45.265625 37.046875 45.230469 37.039062 45.191406 37.035156 C 45.183594 36.773438 45.203125 36.511719 45.011719 36.261719 C 44.800781 36.492188 44.832031 36.777344 44.78125 37.050781 C 44.535156 37.050781 44.292969 37.070312 44.054688 37.046875 C 43.449219 36.992188 42.847656 36.925781 42.246094 36.851562 C 41.648438 36.777344 41.34375 36.394531 41.25 35.84375 C 41.144531 35.203125 41.046875 34.5625 40.992188 33.921875 C 40.929688 33.183594 40.917969 32.441406 40.886719 31.699219 C 40.882812 31.617188 40.886719 31.53125 40.886719 31.433594 C 41.445312 31.433594 41.980469 31.433594 42.546875 31.433594 C 42.535156 31.535156 42.527344 31.605469 42.515625 31.671875 C 42.457031 31.988281 42.46875 32.304688 42.503906 32.625 C 42.507812 32.675781 42.523438 32.726562 42.542969 32.773438 C 42.574219 32.863281 42.636719 32.917969 42.738281 32.914062 C 42.839844 32.90625 42.890625 32.839844 42.910156 32.75 C 42.976562 32.40625 42.992188 32.066406 42.941406 31.71875 C 42.929688 31.636719 42.921875 31.550781 42.90625 31.449219 C 43.597656 31.449219 44.269531 31.449219 44.929688 31.449219 C 44.929688 31.664062 44.929688 31.859375 44.929688 32.054688 C 44.933594 32.347656 44.941406 32.640625 44.949219 32.929688 C 44.949219 32.964844 44.949219 33.007812 44.96875 33.03125 C 45.007812 33.082031 45.058594 33.160156 45.105469 33.15625 C 45.171875 33.15625 45.261719 33.105469 45.289062 33.050781 C 45.335938 32.953125 45.359375 32.835938 45.363281 32.726562 C 45.371094 32.316406 45.363281 31.902344 45.363281 31.453125 C 45.90625 31.417969 46.480469 31.445312 47.089844 31.433594 C 47.078125 31.589844 47.070312 31.722656 47.0625 31.859375 C 47.054688 32.089844 47.046875 32.320312 47.042969 32.554688 C 47.042969 32.589844 47.050781 32.621094 47.058594 32.65625 C 47.078125 32.753906 47.117188 32.84375 47.234375 32.847656 C 47.355469 32.851562 47.398438 32.765625 47.414062 32.664062 C 47.46875 32.359375 47.519531 32.054688 47.476562 31.742188 C 47.464844 31.65625 47.460938 31.574219 47.449219 31.449219 C 47.839844 31.472656 48.207031 31.492188 48.585938 31.511719 C 48.585938 31.589844 48.589844 31.648438 48.585938 31.707031 Z M 37.894531 27.328125 C 37.808594 27.433594 37.722656 27.449219 37.605469 27.445312 C 36.179688 27.433594 34.753906 27.425781 33.332031 27.414062 C 30.132812 27.386719 26.9375 27.363281 23.738281 27.335938 C 20.785156 27.308594 17.832031 27.285156 14.875 27.257812 C 14.839844 27.257812 14.808594 27.257812 14.765625 27.257812 C 14.449219 26.78125 14.175781 26.777344 13.824219 27.234375 C 13.492188 27.234375 13.152344 27.238281 12.816406 27.230469 C 12.753906 27.230469 12.683594 27.191406 12.632812 27.152344 C 12.535156 27.082031 12.441406 27.003906 12.363281 26.914062 C 11.78125 26.246094 11.207031 25.578125 10.628906 24.914062 C 10.523438 24.792969 10.5 24.675781 10.523438 24.511719 C 10.703125 23.347656 10.035156 22.203125 8.929688 21.78125 C 8.773438 21.722656 8.691406 21.636719 8.628906 21.492188 C 7.980469 20.023438 7.734375 18.488281 7.875 16.894531 C 8.019531 15.289062 8.742188 13.96875 9.921875 12.878906 C 10.007812 12.800781 10.125 12.746094 10.238281 12.710938 C 11.109375 12.445312 11.976562 12.164062 12.855469 11.9375 C 14.675781 11.472656 16.53125 11.195312 18.394531 10.988281 C 21.414062 10.652344 24.441406 10.523438 27.476562 10.597656 C 28.914062 10.636719 30.355469 10.722656 31.792969 10.835938 C 33.074219 10.941406 34.351562 11.082031 35.621094 11.269531 C 37.917969 11.605469 40.171875 12.125 42.371094 12.878906 C 42.84375 13.039062 43.1875 13.296875 43.480469 13.671875 C 44.414062 14.855469 44.820312 16.203125 44.816406 17.695312 C 44.816406 19 44.558594 20.246094 44.046875 21.445312 C 43.976562 21.609375 43.886719 21.707031 43.714844 21.769531 C 42.597656 22.164062 41.914062 23.347656 42.117188 24.515625 C 42.144531 24.671875 42.125 24.792969 42.023438 24.921875 C 41.449219 25.636719 40.847656 26.328125 40.175781 26.953125 C 40.035156 27.085938 39.902344 27.222656 39.777344 27.363281 C 39.707031 27.441406 39.628906 27.472656 39.527344 27.46875 C 39.300781 27.460938 39.074219 27.460938 38.847656 27.464844 C 38.734375 27.464844 38.660156 27.425781 38.585938 27.335938 C 38.375 27.09375 38.089844 27.085938 37.894531 27.328125 Z M 37.6875 30.921875 C 37.609375 30.925781 37.535156 30.9375 37.457031 30.9375 C 35.84375 30.929688 34.226562 30.921875 32.613281 30.917969 C 32.46875 30.917969 32.375 30.878906 32.292969 30.757812 C 31.628906 29.816406 30.789062 29.0625 29.824219 28.445312 C 29.546875 28.273438 29.246094 28.136719 28.957031 27.984375 C 28.960938 27.972656 28.960938 27.960938 28.960938 27.953125 C 31.890625 27.980469 34.824219 28.011719 37.785156 28.042969 C 37.796875 29.003906 37.816406 29.957031 37.6875 30.921875 Z M 29.992188 30.894531 C 29.859375 29.769531 29.3125 28.894531 28.410156 28.226562 C 28.421875 28.210938 28.433594 28.195312 28.445312 28.179688 C 28.566406 28.226562 28.6875 28.261719 28.800781 28.316406 C 29.230469 28.507812 29.621094 28.761719 29.988281 29.054688 C 30.585938 29.53125 31.132812 30.058594 31.601562 30.660156 C 31.65625 30.726562 31.703125 30.796875 31.777344 30.894531 C 31.152344 30.894531 30.585938 30.894531 29.992188 30.894531 Z M 28.109375 30.886719 C 28.152344 29.945312 28.171875 29.019531 27.699219 28.164062 C 28.578125 28.421875 29.578125 29.847656 29.609375 30.886719 C 29.101562 30.886719 28.621094 30.886719 28.109375 30.886719 Z M 27.671875 30.875 C 27.0625 30.875 26.457031 30.875 25.808594 30.875 C 25.859375 30.78125 25.894531 30.699219 25.9375 30.621094 C 26.226562 30.097656 26.460938 29.550781 26.558594 28.957031 C 26.605469 28.660156 26.636719 28.363281 26.679688 28.042969 C 26.722656 28.039062 26.792969 28.046875 26.855469 28.03125 C 27.175781 27.96875 27.332031 28.148438 27.449219 28.40625 C 27.59375 28.730469 27.675781 29.070312 27.707031 29.425781 C 27.746094 29.90625 27.761719 30.386719 27.671875 30.875 Z M 25.269531 30.871094 C 24.78125 30.871094 24.304688 30.871094 23.824219 30.871094 C 24.3125 30.039062 25.839844 28.027344 26.289062 27.941406 C 26.40625 28.417969 25.832031 30.066406 25.269531 30.871094 Z M 23.300781 30.707031 C 23.203125 30.839844 23.097656 30.886719 22.933594 30.886719 C 20.996094 30.875 19.058594 30.871094 17.121094 30.863281 C 16.425781 30.863281 15.734375 30.859375 15.039062 30.855469 C 14.953125 30.855469 14.867188 30.847656 14.785156 30.84375 C 14.785156 29.828125 14.785156 28.847656 14.785156 27.871094 C 15.027344 27.8125 24.996094 27.882812 25.628906 27.941406 C 25.613281 27.972656 25.605469 28.007812 25.585938 28.023438 C 25.039062 28.488281 24.582031 29.027344 24.148438 29.589844 C 23.859375 29.957031 23.574219 30.328125 23.300781 30.707031 Z M 13.464844 30.847656 C 10.242188 30.84375 7.019531 30.839844 3.792969 30.835938 C 3.640625 30.832031 3.476562 30.84375 3.332031 30.804688 C 2.832031 30.660156 2.621094 30.273438 2.5625 29.800781 C 2.496094 29.273438 2.605469 28.769531 2.832031 28.292969 C 2.894531 28.15625 2.988281 28.070312 3.121094 28.007812 C 3.574219 27.789062 4.054688 27.703125 4.558594 27.707031 C 6.21875 27.730469 7.878906 27.753906 9.539062 27.773438 C 10.824219 27.789062 12.109375 27.800781 13.394531 27.816406 C 13.488281 27.816406 13.582031 27.816406 13.695312 27.816406 C 13.589844 28.851562 13.695312 29.828125 13.75 30.835938 C 13.648438 30.839844 13.558594 30.851562 13.464844 30.847656 Z M 11.566406 35.664062 C 11.523438 35.882812 11.445312 36.09375 11.359375 36.300781 C 11.265625 36.515625 11.09375 36.671875 10.863281 36.730469 C 10.570312 36.804688 10.273438 36.878906 9.976562 36.910156 C 9.390625 36.972656 8.800781 37 8.210938 37.042969 C 8.144531 37.046875 8.074219 37.035156 7.988281 37.03125 C 7.96875 36.746094 7.976562 36.484375 7.789062 36.25 C 7.558594 36.46875 7.617188 36.746094 7.59375 37.023438 C 7.382812 37.011719 7.1875 37.011719 6.992188 36.992188 C 6.53125 36.949219 6.082031 36.855469 5.652344 36.679688 C 5.125 36.464844 4.777344 36.085938 4.679688 35.523438 C 4.5625 34.84375 4.46875 34.160156 4.386719 33.476562 C 4.300781 32.8125 4.242188 32.140625 4.171875 31.472656 C 4.167969 31.441406 4.171875 31.40625 4.171875 31.363281 C 4.558594 31.363281 4.9375 31.363281 5.300781 31.363281 C 5.300781 31.585938 5.292969 31.789062 5.304688 31.996094 C 5.316406 32.199219 5.339844 32.40625 5.363281 32.609375 C 5.375 32.71875 5.414062 32.816406 5.546875 32.820312 C 5.65625 32.824219 5.726562 32.742188 5.730469 32.582031 C 5.730469 32.253906 5.714844 31.925781 5.703125 31.601562 C 5.699219 31.53125 5.6875 31.464844 5.675781 31.359375 C 6.273438 31.347656 6.859375 31.351562 7.453125 31.355469 C 7.433594 31.679688 7.410156 31.980469 7.40625 32.28125 C 7.402344 32.484375 7.429688 32.691406 7.449219 32.898438 C 7.457031 32.945312 7.46875 33.007812 7.5 33.039062 C 7.546875 33.085938 7.621094 33.148438 7.664062 33.136719 C 7.722656 33.125 7.804688 33.050781 7.8125 32.992188 C 7.84375 32.71875 7.867188 32.445312 7.867188 32.167969 C 7.867188 31.910156 7.835938 31.65625 7.816406 31.398438 C 7.992188 31.34375 9.480469 31.328125 9.878906 31.378906 C 9.867188 31.496094 9.863281 31.613281 9.839844 31.726562 C 9.777344 32.019531 9.820312 32.3125 9.851562 32.601562 C 9.871094 32.796875 9.941406 32.890625 10.050781 32.894531 C 10.164062 32.898438 10.257812 32.804688 10.269531 32.621094 C 10.289062 32.328125 10.285156 32.039062 10.277344 31.746094 C 10.277344 31.628906 10.25 31.507812 10.230469 31.371094 C 10.777344 31.371094 11.3125 31.371094 11.863281 31.371094 C 11.871094 31.425781 11.890625 31.472656 11.890625 31.519531 C 11.898438 32.910156 11.828125 34.292969 11.566406 35.664062 Z M 8.078125 21.925781 C 9.273438 21.957031 10.199219 22.910156 10.171875 24.085938 C 10.179688 25.191406 9.238281 26.277344 7.910156 26.226562 C 6.742188 26.183594 5.808594 25.203125 5.835938 24.011719 C 5.859375 22.835938 6.871094 21.898438 8.078125 21.925781 Z M 3.292969 22.847656 C 3.429688 22.179688 3.59375 21.519531 3.847656 20.882812 C 4.21875 19.953125 4.765625 19.164062 5.621094 18.609375 C 6.035156 18.339844 6.472656 18.148438 6.980469 18.148438 C 7.039062 18.144531 7.097656 18.148438 7.191406 18.148438 C 7.25 19.335938 7.476562 20.476562 7.9375 21.589844 C 6.390625 21.75 5.660156 22.820312 5.535156 23.835938 C 5.414062 24.828125 5.921875 25.867188 6.945312 26.363281 C 7.789062 26.777344 9.152344 26.804688 10.183594 25.484375 C 10.679688 26.042969 11.175781 26.605469 11.667969 27.160156 C 11.660156 27.183594 11.65625 27.191406 11.652344 27.199219 C 11.648438 27.203125 11.640625 27.210938 11.632812 27.210938 C 8.84375 27.207031 6.058594 27.199219 3.269531 27.191406 C 3.226562 27.191406 3.183594 27.175781 3.117188 27.164062 C 3.082031 26.855469 3.039062 26.550781 3.015625 26.242188 C 2.921875 25.097656 3.066406 23.96875 3.292969 22.847656 Z M 12.859375 11.265625 C 14.117188 10.859375 15.398438 10.558594 16.707031 10.375 C 18.136719 10.171875 19.566406 9.992188 20.996094 9.824219 C 21.679688 9.746094 22.363281 9.699219 23.050781 9.660156 C 24.039062 9.605469 25.027344 9.546875 26.015625 9.53125 C 27.285156 9.507812 28.554688 9.5625 29.816406 9.683594 C 30.542969 9.75 31.273438 9.777344 32 9.863281 C 33.265625 10.007812 34.53125 10.171875 35.796875 10.34375 C 36.917969 10.5 38.015625 10.75 39.105469 11.050781 C 40.070312 11.320312 41.007812 11.65625 41.855469 12.203125 C 41.925781 12.25 41.996094 12.296875 42.046875 12.382812 C 41.894531 12.332031 41.742188 12.285156 41.589844 12.234375 C 39.785156 11.640625 37.9375 11.238281 36.066406 10.953125 C 34.734375 10.753906 33.398438 10.570312 32.0625 10.441406 C 29.414062 10.183594 26.753906 10.09375 24.09375 10.167969 C 22.835938 10.203125 21.574219 10.246094 20.316406 10.335938 C 18.117188 10.5 15.929688 10.785156 13.769531 11.261719 C 13.117188 11.402344 12.472656 11.578125 11.824219 11.738281 C 11.773438 11.75 11.714844 11.757812 11.664062 11.769531 C 11.65625 11.753906 11.652344 11.738281 11.644531 11.71875 C 12.050781 11.566406 12.445312 11.394531 12.859375 11.265625 Z M 38.734375 10.277344 C 38.402344 10.199219 38.085938 10.125 37.765625 10.054688 C 36.621094 9.800781 35.464844 9.621094 34.296875 9.488281 C 33.511719 9.398438 32.730469 9.296875 31.941406 9.230469 C 30.929688 9.148438 29.914062 9.097656 28.898438 9.03125 C 28.300781 8.992188 27.703125 8.960938 27.105469 8.914062 C 26.289062 8.847656 25.472656 8.882812 24.660156 8.941406 C 23.480469 9.023438 22.300781 9.09375 21.125 9.191406 C 20.285156 9.261719 19.449219 9.347656 18.613281 9.457031 C 17.605469 9.589844 16.597656 9.726562 15.601562 9.914062 C 14.757812 10.074219 13.929688 10.308594 13.097656 10.507812 C 12.996094 10.53125 12.898438 10.5625 12.765625 10.601562 C 12.980469 9.128906 13.273438 7.707031 13.644531 6.296875 C 14.261719 6.207031 14.863281 6.113281 15.464844 6.03125 C 16.339844 5.914062 17.21875 5.785156 18.097656 5.695312 C 19.054688 5.597656 20.015625 5.519531 20.980469 5.460938 C 22.425781 5.378906 23.875 5.316406 25.328125 5.261719 C 26.820312 5.210938 28.3125 5.214844 29.808594 5.289062 C 31.460938 5.375 33.089844 5.597656 34.707031 5.941406 C 35.84375 6.183594 36.980469 6.421875 38.117188 6.664062 C 38.195312 6.679688 38.269531 6.699219 38.375 6.726562 C 38.503906 7.910156 38.726562 9.070312 38.734375 10.277344 Z M 12.945312 5.582031 C 13.789062 5.355469 14.636719 5.105469 15.496094 4.894531 C 16.71875 4.597656 17.960938 4.402344 19.214844 4.253906 C 20.679688 4.082031 22.152344 3.980469 23.628906 3.929688 C 25.148438 3.878906 26.671875 3.894531 28.191406 3.964844 C 30.265625 4.058594 32.328125 4.261719 34.382812 4.582031 C 35.988281 4.828125 37.574219 5.15625 39.148438 5.566406 C 39.214844 5.582031 39.277344 5.605469 39.367188 5.628906 C 39.488281 6.445312 39.636719 7.257812 39.683594 8.085938 C 39.730469 8.898438 39.742188 9.714844 39.773438 10.566406 C 39.511719 10.492188 39.292969 10.425781 39.113281 10.375 C 39.066406 9.773438 39.03125 9.207031 38.976562 8.644531 C 38.929688 8.164062 38.867188 7.683594 38.792969 7.207031 C 38.757812 6.996094 38.679688 6.792969 38.625 6.582031 C 38.589844 6.441406 38.496094 6.367188 38.359375 6.335938 C 37.953125 6.234375 37.554688 6.121094 37.144531 6.039062 C 35.84375 5.773438 34.542969 5.511719 33.238281 5.273438 C 32.132812 5.074219 31.015625 4.972656 29.898438 4.914062 C 28.457031 4.839844 27.015625 4.804688 25.570312 4.871094 C 24.210938 4.933594 22.84375 4.96875 21.484375 5.050781 C 19.8125 5.148438 18.140625 5.277344 16.480469 5.546875 C 15.523438 5.703125 14.566406 5.863281 13.605469 6.015625 C 13.5 6.035156 13.453125 6.097656 13.425781 6.179688 C 13.292969 6.550781 13.132812 6.917969 13.035156 7.300781 C 12.75 8.417969 12.503906 9.546875 12.402344 10.730469 C 12.167969 10.820312 11.941406 10.910156 11.695312 11.003906 C 12.011719 9.171875 12.503906 7.398438 12.945312 5.582031 Z M 42.390625 24.015625 C 42.417969 22.839844 43.425781 21.898438 44.628906 21.925781 C 45.824219 21.953125 46.753906 22.90625 46.726562 24.082031 C 46.738281 25.191406 45.792969 26.277344 44.472656 26.226562 C 43.300781 26.1875 42.367188 25.207031 42.390625 24.015625 Z M 45.457031 18.152344 C 45.832031 18.132812 46.175781 18.175781 46.507812 18.324219 C 47.34375 18.699219 47.964844 19.304688 48.421875 20.089844 C 48.824219 20.773438 49.058594 21.523438 49.234375 22.289062 C 49.480469 23.335938 49.667969 24.386719 49.660156 25.460938 C 49.65625 25.996094 49.585938 26.527344 49.546875 27.058594 C 49.523438 27.351562 49.34375 27.507812 49.082031 27.589844 C 48.976562 27.625 48.863281 27.640625 48.75 27.640625 C 46.285156 27.589844 43.816406 27.535156 41.351562 27.484375 C 41.167969 27.480469 40.988281 27.480469 40.804688 27.480469 C 40.792969 27.460938 40.777344 27.441406 40.765625 27.417969 C 41.328125 26.777344 41.890625 26.140625 42.46875 25.480469 C 42.53125 25.554688 42.589844 25.621094 42.648438 25.691406 C 43.730469 26.996094 45.753906 26.898438 46.699219 25.496094 C 47.589844 24.179688 46.972656 22.320312 45.460938 21.773438 C 45.234375 21.691406 44.996094 21.644531 44.726562 21.574219 C 45.164062 20.492188 45.410156 19.355469 45.457031 18.152344 Z M 42.300781 40.933594 C 42.539062 40.890625 42.777344 40.84375 43.015625 40.800781 C 43.089844 40.789062 43.164062 40.78125 43.242188 40.773438 C 42.980469 41.035156 42.777344 41.296875 42.652344 41.613281 C 42.601562 41.738281 42.5 41.742188 42.398438 41.753906 C 41.894531 41.828125 41.386719 41.894531 40.882812 41.964844 C 40.585938 42.007812 40.289062 42.0625 39.96875 42.113281 C 39.988281 41.808594 40.117188 41.5625 40.308594 41.347656 C 40.363281 41.285156 40.472656 41.257812 40.5625 41.242188 C 41.140625 41.132812 41.71875 41.035156 42.300781 40.933594 Z M 44.941406 41.238281 C 45.175781 41.570312 45.25 41.8125 45.265625 42.347656 C 45.3125 42.769531 45.117188 43.164062 44.742188 43.460938 C 44.347656 43.78125 43.949219 43.824219 43.542969 43.484375 C 42.964844 43.007812 42.609375 42.058594 43.277344 41.195312 C 43.746094 40.585938 44.5 40.609375 44.941406 41.238281 Z M 43.285156 43.871094 C 42.453125 43.914062 41.621094 43.953125 40.789062 43.996094 C 40.777344 43.996094 40.769531 43.996094 40.761719 43.996094 C 40.359375 43.996094 40.289062 43.945312 40.148438 43.527344 C 41.027344 43.359375 41.921875 43.34375 42.78125 43.222656 C 42.984375 43.433594 43.175781 43.628906 43.375 43.835938 C 43.34375 43.847656 43.3125 43.867188 43.285156 43.871094 Z M 40.019531 43.289062 C 39.863281 43.003906 39.84375 42.707031 39.902344 42.40625 C 40.785156 42.269531 41.65625 42.132812 42.507812 42 C 42.5625 42.328125 42.617188 42.660156 42.675781 43.019531 C 41.796875 43.058594 40.90625 43.078125 40.019531 43.289062 Z M 33.878906 42.09375 C 33.9375 42.15625 34 42.226562 34.074219 42.257812 C 34.136719 42.285156 34.234375 42.277344 34.289062 42.242188 C 34.359375 42.199219 34.351562 42.105469 34.300781 42.035156 C 34.234375 41.941406 34.164062 41.859375 34.089844 41.769531 C 33.972656 41.625 33.855469 41.476562 33.71875 41.3125 C 33.847656 41.246094 33.953125 41.191406 34.0625 41.136719 C 34.246094 41.40625 34.40625 41.660156 34.585938 41.902344 C 34.765625 42.144531 34.960938 42.371094 35.160156 42.617188 C 34.792969 42.746094 34.507812 42.949219 34.304688 43.269531 C 33.878906 42.796875 33.476562 42.347656 33.058594 41.878906 C 33.15625 41.777344 33.253906 41.675781 33.367188 41.554688 C 33.546875 41.746094 33.710938 41.921875 33.878906 42.09375 Z M 34.691406 41.175781 C 35.027344 41.5625 35.367188 41.941406 35.707031 42.324219 C 35.761719 42.386719 35.8125 42.453125 35.898438 42.558594 C 35.71875 42.558594 35.597656 42.558594 35.453125 42.558594 C 35.058594 42.085938 34.648438 41.601562 34.238281 41.109375 C 34.523438 40.980469 34.523438 40.984375 34.691406 41.175781 Z M 36.515625 44.257812 C 36.355469 44.507812 36.140625 44.683594 35.875 44.808594 C 35.164062 45.148438 34.34375 44.503906 34.402344 43.855469 C 34.378906 43.644531 34.46875 43.457031 34.585938 43.285156 C 34.859375 42.894531 35.265625 42.746094 35.714844 42.753906 C 36.394531 42.761719 36.929688 43.617188 36.515625 44.257812 Z M 34.113281 44.148438 C 33.621094 43.542969 33.164062 42.984375 32.699219 42.414062 C 32.78125 42.277344 32.863281 42.144531 32.953125 41.996094 C 33.375 42.503906 33.777344 42.992188 34.183594 43.476562 C 34.160156 43.675781 34.140625 43.882812 34.113281 44.148438 Z M 28.824219 43.324219 C 29.070312 43.300781 29.261719 43.355469 29.425781 43.542969 C 29.550781 43.683594 29.664062 43.828125 29.734375 44.007812 C 29.195312 44.074219 28.671875 44.132812 28.148438 44.195312 C 27.847656 44.230469 27.546875 44.269531 27.242188 44.296875 C 27.175781 44.300781 27.070312 44.289062 27.035156 44.246094 C 26.808594 43.964844 26.542969 43.742188 26.214844 43.566406 C 26.304688 43.554688 26.398438 43.539062 26.492188 43.527344 C 27.269531 43.460938 28.046875 43.402344 28.824219 43.324219 Z M 29.875 44.28125 C 30.011719 44.546875 30.054688 44.835938 30.003906 45.164062 C 29.101562 45.203125 28.226562 45.382812 27.324219 45.601562 C 27.324219 45.417969 27.335938 45.25 27.320312 45.085938 C 27.304688 44.914062 27.257812 44.75 27.222656 44.566406 C 28.09375 44.472656 28.96875 44.378906 29.875 44.28125 Z M 29.8125 45.875 C 29.777344 45.941406 29.675781 45.980469 29.597656 46 C 29.253906 46.089844 28.910156 46.175781 28.5625 46.25 C 28.0625 46.355469 27.558594 46.453125 27.058594 46.550781 C 27.003906 46.5625 26.945312 46.566406 26.882812 46.574219 C 27.023438 46.320312 27.15625 46.082031 27.304688 45.816406 C 28.148438 45.683594 29.027344 45.546875 29.933594 45.40625 C 29.945312 45.601562 29.886719 45.75 29.8125 45.875 Z M 26.617188 46.289062 C 26.339844 46.644531 26.007812 46.753906 25.582031 46.59375 C 25.140625 46.425781 24.816406 46.132812 24.6875 45.660156 C 24.570312 45.230469 24.542969 44.808594 24.71875 44.390625 C 24.832031 44.128906 25.003906 43.925781 25.277344 43.804688 C 25.597656 43.667969 25.902344 43.734375 26.171875 43.902344 C 26.664062 44.210938 26.945312 44.65625 26.960938 45.238281 C 26.949219 45.632812 26.855469 45.980469 26.617188 46.289062 Z M 19.089844 42.339844 C 19.082031 42.355469 19.074219 42.367188 19.066406 42.378906 C 18.914062 42.324219 18.761719 42.265625 18.601562 42.207031 C 18.640625 42.128906 18.671875 42.058594 18.703125 41.992188 C 18.726562 41.945312 18.75 41.902344 18.792969 41.824219 C 18.902344 42.011719 18.996094 42.175781 19.089844 42.339844 Z M 19.394531 43.703125 C 19.394531 44.433594 18.75 45.136719 18.074219 45.113281 C 17.242188 45.089844 16.652344 44.402344 16.667969 43.761719 C 16.675781 43.144531 17.199219 42.429688 18.046875 42.433594 C 18.785156 42.4375 19.394531 43.011719 19.394531 43.703125 Z M 15.777344 41.015625 C 15.898438 40.929688 16.03125 40.839844 16.167969 40.746094 C 16.378906 41.40625 16.582031 42.042969 16.796875 42.714844 C 16.691406 42.863281 16.570312 43.027344 16.4375 43.210938 C 16.214844 42.472656 16 41.757812 15.777344 41.015625 Z M 17.152344 40.371094 C 17.324219 40.96875 17.496094 41.566406 17.675781 42.179688 C 17.457031 42.28125 17.238281 42.386719 17.011719 42.496094 C 16.804688 41.878906 16.597656 41.261719 16.386719 40.636719 C 16.613281 40.484375 16.855469 40.414062 17.152344 40.371094 Z M 18.125 40.519531 C 18.15625 40.527344 18.179688 40.558594 18.199219 40.582031 C 18.21875 40.609375 18.226562 40.644531 18.242188 40.675781 C 18.328125 40.875 18.46875 41.066406 18.480469 41.269531 C 18.492188 41.46875 18.367188 41.671875 18.300781 41.875 C 18.273438 41.964844 18.246094 42.054688 18.214844 42.160156 C 18.132812 42.160156 18.050781 42.160156 17.996094 42.160156 C 17.777344 41.558594 17.566406 40.976562 17.347656 40.375 C 17.636719 40.347656 17.878906 40.449219 18.125 40.519531 Z M 13.5625 41.617188 C 13.804688 41.59375 14 41.636719 14.164062 41.824219 C 14.292969 41.96875 14.402344 42.113281 14.484375 42.296875 C 13.714844 42.390625 12.976562 42.476562 12.234375 42.5625 C 12.132812 42.578125 12.027344 42.59375 11.925781 42.589844 C 11.871094 42.589844 11.800781 42.566406 11.773438 42.527344 C 11.550781 42.242188 11.273438 42.035156 10.890625 41.867188 C 11.050781 41.84375 11.152344 41.828125 11.253906 41.820312 C 12.023438 41.753906 12.792969 41.691406 13.5625 41.617188 Z M 14.621094 42.574219 C 14.765625 42.832031 14.789062 43.125 14.746094 43.453125 C 13.839844 43.492188 12.957031 43.683594 12.097656 43.882812 C 12.0625 43.53125 12.03125 43.203125 11.996094 42.855469 C 12.84375 42.761719 13.726562 42.667969 14.621094 42.574219 Z M 14.6875 43.78125 C 14.660156 44.117188 14.484375 44.292969 14.140625 44.355469 C 13.332031 44.507812 12.53125 44.691406 11.726562 44.859375 C 11.699219 44.867188 11.675781 44.859375 11.632812 44.859375 C 11.769531 44.609375 11.902344 44.367188 12.046875 44.105469 C 12.90625 44 13.773438 43.789062 14.679688 43.722656 C 14.683594 43.765625 14.6875 43.773438 14.6875 43.78125 Z M 11.21875 44.746094 C 11.074219 44.890625 10.902344 44.953125 10.699219 44.945312 C 10.210938 44.925781 9.816406 44.707031 9.585938 44.292969 C 9.300781 43.78125 9.234375 43.230469 9.472656 42.671875 C 9.578125 42.425781 9.738281 42.234375 9.988281 42.113281 C 10.320312 41.953125 10.640625 42.019531 10.929688 42.199219 C 11.933594 42.839844 11.898438 44.054688 11.21875 44.746094 Z M 50.605469 29.449219 C 50.503906 28.941406 50.355469 28.445312 50.042969 28.015625 C 49.992188 27.945312 49.964844 27.878906 49.996094 27.78125 C 50.257812 26.964844 50.316406 26.125 50.289062 25.273438 C 50.261719 24.289062 50.105469 23.316406 49.890625 22.355469 C 49.707031 21.539062 49.46875 20.734375 49.058594 19.996094 C 48.582031 19.140625 47.941406 18.441406 47.070312 17.964844 C 46.59375 17.703125 46.101562 17.585938 45.5625 17.71875 C 45.542969 17.726562 45.515625 17.714844 45.457031 17.714844 C 45.457031 17.574219 45.464844 17.4375 45.457031 17.300781 C 45.453125 17.164062 45.4375 17.027344 45.425781 16.890625 C 45.277344 15.109375 44.503906 13.636719 43.199219 12.429688 C 42.386719 11.679688 41.429688 11.160156 40.390625 10.785156 C 40.300781 10.753906 40.214844 10.71875 40.140625 10.6875 C 40.160156 10.355469 40.1875 10.046875 40.191406 9.738281 C 40.199219 8.917969 40.132812 8.101562 40.03125 7.289062 C 39.949219 6.65625 39.851562 6.027344 39.660156 5.417969 C 39.636719 5.34375 39.570312 5.273438 39.503906 5.230469 C 39.441406 5.1875 39.359375 5.175781 39.28125 5.15625 C 37.828125 4.792969 36.355469 4.496094 34.875 4.253906 C 33.210938 3.976562 31.535156 3.78125 29.855469 3.65625 C 27.90625 3.511719 25.949219 3.4375 23.996094 3.519531 C 23.03125 3.558594 22.066406 3.613281 21.109375 3.691406 C 20.3125 3.753906 19.519531 3.863281 18.726562 3.957031 C 17.5 4.101562 16.28125 4.269531 15.082031 4.570312 C 14.417969 4.738281 13.757812 4.921875 13.113281 5.164062 C 12.832031 5.269531 12.679688 5.445312 12.601562 5.722656 C 12.359375 6.574219 12.085938 7.421875 11.875 8.285156 C 11.652344 9.203125 11.484375 10.140625 11.300781 11.070312 C 11.28125 11.183594 11.21875 11.222656 11.132812 11.273438 C 10.828125 11.453125 10.511719 11.621094 10.222656 11.828125 C 8.480469 13.058594 7.445312 14.710938 7.234375 16.847656 C 7.203125 17.136719 7.191406 17.425781 7.171875 17.726562 C 7.054688 17.710938 6.953125 17.691406 6.851562 17.679688 C 6.359375 17.609375 5.921875 17.769531 5.511719 18.007812 C 4.601562 18.527344 3.949219 19.285156 3.484375 20.210938 C 3.109375 20.957031 2.894531 21.753906 2.722656 22.566406 C 2.386719 24.148438 2.195312 25.734375 2.535156 27.339844 C 2.558594 27.464844 2.527344 27.550781 2.4375 27.640625 C 2.175781 27.902344 1.988281 28.214844 1.945312 28.589844 C 1.875 29.207031 1.914062 29.824219 2.160156 30.394531 C 2.398438 30.949219 2.8125 31.324219 3.476562 31.324219 C 3.578125 31.324219 3.679688 31.339844 3.800781 31.351562 C 3.800781 31.480469 3.792969 31.601562 3.800781 31.71875 C 3.855469 32.542969 3.894531 33.371094 3.972656 34.195312 C 4.019531 34.691406 4.113281 35.183594 4.21875 35.671875 C 4.367188 36.332031 4.746094 36.835938 5.382812 37.109375 C 5.730469 37.253906 6.097656 37.367188 6.46875 37.460938 C 7.027344 37.597656 7.601562 37.597656 8.175781 37.605469 C 9.054688 37.613281 9.925781 37.539062 10.785156 37.316406 C 11.425781 37.152344 11.816406 36.753906 11.996094 36.125 C 12.261719 35.199219 12.351562 34.246094 12.390625 33.289062 C 12.414062 32.730469 12.394531 32.167969 12.394531 31.605469 C 12.394531 31.53125 12.402344 31.457031 12.40625 31.398438 C 15.851562 31.398438 19.277344 31.398438 22.742188 31.398438 C 22.679688 31.488281 22.648438 31.535156 22.609375 31.582031 C 22.015625 32.335938 21.425781 33.09375 20.824219 33.84375 C 20.285156 34.511719 19.691406 35.125 19.070312 35.71875 C 18.105469 36.636719 17.042969 37.429688 15.972656 38.214844 C 14.90625 38.996094 13.90625 39.847656 13.101562 40.898438 C 12.984375 41.050781 12.882812 41.238281 12.726562 41.320312 C 12.570312 41.402344 12.351562 41.371094 12.164062 41.40625 C 11.496094 41.519531 10.828125 41.617188 10.167969 41.765625 C 9.648438 41.878906 9.316406 42.21875 9.15625 42.738281 C 9.007812 43.234375 9.078125 43.707031 9.214844 44.1875 C 9.382812 44.757812 10.152344 45.324219 10.804688 45.273438 C 11.039062 45.257812 11.277344 45.242188 11.503906 45.203125 C 12.195312 45.078125 12.886719 44.945312 13.574219 44.808594 C 13.890625 44.746094 14.207031 44.679688 14.511719 44.589844 C 14.636719 44.550781 14.792969 44.472656 14.847656 44.367188 C 15.082031 43.9375 15.230469 43.472656 15.183594 42.980469 C 15.128906 42.34375 14.789062 41.851562 14.289062 41.460938 C 14.105469 41.316406 13.890625 41.261719 13.652344 41.285156 C 13.554688 41.292969 13.453125 41.316406 13.34375 41.25 C 13.535156 41.054688 13.714844 40.863281 13.898438 40.683594 C 14.332031 40.257812 14.742188 39.808594 15.210938 39.425781 C 15.949219 38.824219 16.730469 38.273438 17.488281 37.699219 C 18.847656 36.667969 20.097656 35.519531 21.179688 34.203125 C 21.886719 33.34375 22.566406 32.457031 23.25 31.574219 C 23.359375 31.433594 23.472656 31.382812 23.644531 31.390625 C 24.015625 31.398438 24.390625 31.390625 24.765625 31.394531 C 24.816406 31.394531 24.871094 31.410156 24.945312 31.421875 C 24.886719 31.519531 24.847656 31.597656 24.800781 31.667969 C 24.472656 32.144531 24.15625 32.628906 23.808594 33.09375 C 22.824219 34.410156 21.8125 35.703125 20.835938 37.027344 C 19.976562 38.191406 19.261719 39.441406 18.699219 40.777344 C 18.683594 40.8125 18.660156 40.839844 18.617188 40.902344 C 18.550781 40.75 18.507812 40.628906 18.445312 40.515625 C 18.394531 40.429688 18.335938 40.328125 18.253906 40.285156 C 17.492188 39.910156 16.433594 40.011719 15.769531 40.742188 C 15.605469 40.921875 15.546875 41.109375 15.617188 41.355469 C 15.769531 41.878906 15.894531 42.40625 16.035156 42.929688 C 16.152344 43.371094 16.277344 43.8125 16.40625 44.25 C 16.679688 45.175781 17.644531 45.589844 18.320312 45.46875 C 19.207031 45.3125 19.875 44.4375 19.738281 43.554688 C 19.664062 43.050781 19.5625 42.535156 19.296875 42.078125 C 19.207031 41.921875 19.132812 41.753906 19.039062 41.597656 C 18.972656 41.492188 18.972656 41.398438 19.027344 41.285156 C 19.210938 40.914062 19.386719 40.539062 19.5625 40.164062 C 20.3125 38.589844 21.292969 37.15625 22.339844 35.761719 C 23.386719 34.367188 24.492188 33.011719 25.414062 31.519531 C 25.476562 31.414062 25.558594 31.394531 25.671875 31.394531 C 26.246094 31.398438 26.820312 31.394531 27.390625 31.398438 C 27.453125 31.398438 27.511719 31.410156 27.578125 31.414062 C 27.570312 31.484375 27.566406 31.542969 27.550781 31.601562 C 27.414062 32.15625 27.289062 32.710938 27.128906 33.257812 C 26.691406 34.765625 26.269531 36.273438 26.097656 37.839844 C 25.980469 38.917969 26.007812 39.976562 26.25 41.027344 C 26.402344 41.691406 26.707031 42.292969 26.972656 42.910156 C 27.003906 42.984375 27.035156 43.0625 27.070312 43.152344 C 26.921875 43.171875 26.800781 43.1875 26.683594 43.210938 C 26.257812 43.296875 25.828125 43.367188 25.410156 43.472656 C 24.890625 43.609375 24.558594 43.941406 24.40625 44.460938 C 24.261719 44.957031 24.332031 45.429688 24.476562 45.910156 C 24.640625 46.464844 25.398438 47.027344 26.050781 46.984375 C 26.292969 46.964844 26.535156 46.949219 26.773438 46.90625 C 27.457031 46.785156 28.136719 46.652344 28.820312 46.519531 C 29.140625 46.453125 29.460938 46.378906 29.78125 46.296875 C 29.980469 46.246094 30.121094 46.132812 30.183594 45.929688 C 30.238281 45.757812 30.308594 45.589844 30.355469 45.414062 C 30.585938 44.550781 30.28125 43.699219 29.554688 43.175781 C 29.371094 43.046875 29.171875 42.976562 28.945312 42.992188 C 28.640625 43.011719 28.339844 43.027344 28.035156 43.046875 C 27.835938 43.0625 27.640625 43.082031 27.4375 43.101562 C 27.28125 42.652344 27.121094 42.214844 26.984375 41.773438 C 26.664062 40.753906 26.472656 39.714844 26.527344 38.640625 C 26.582031 37.53125 26.777344 36.445312 27.042969 35.375 C 27.289062 34.378906 27.566406 33.390625 27.820312 32.394531 C 27.902344 32.074219 27.960938 31.742188 28.03125 31.421875 C 28.371094 31.375 29.523438 31.390625 29.730469 31.453125 C 29.777344 32.207031 29.828125 32.972656 29.875 33.738281 C 29.929688 34.582031 30 35.425781 30.1875 36.253906 C 30.457031 37.433594 30.882812 38.554688 31.617188 39.53125 C 32.054688 40.117188 32.566406 40.648438 33.046875 41.207031 C 33.105469 41.277344 33.167969 41.34375 33.226562 41.40625 C 32.988281 41.675781 32.75 41.902344 32.628906 42.21875 C 32.570312 42.367188 32.574219 42.488281 32.671875 42.628906 C 33.1875 43.378906 33.746094 44.09375 34.386719 44.738281 C 35.0625 45.421875 35.863281 45.328125 36.472656 44.832031 C 37.109375 44.316406 37.082031 43.558594 36.667969 43.058594 C 36.304688 42.617188 35.914062 42.203125 35.523438 41.78125 C 35.261719 41.496094 34.980469 41.226562 34.714844 40.945312 C 34.609375 40.832031 34.492188 40.804688 34.359375 40.84375 C 34.097656 40.921875 33.839844 41.015625 33.5625 41.109375 C 33.339844 40.84375 33.09375 40.566406 32.863281 40.277344 C 32.492188 39.820312 32.101562 39.375 31.773438 38.890625 C 30.898438 37.59375 30.484375 36.128906 30.339844 34.589844 C 30.28125 33.960938 30.246094 33.332031 30.199219 32.707031 C 30.164062 32.285156 30.128906 31.863281 30.089844 31.398438 C 30.191406 31.398438 30.277344 31.402344 30.363281 31.398438 C 30.859375 31.398438 31.355469 31.410156 31.847656 31.390625 C 32.054688 31.386719 32.167969 31.449219 32.253906 31.632812 C 32.621094 32.402344 33.007812 33.164062 33.375 33.9375 C 33.710938 34.640625 34.070312 35.324219 34.527344 35.960938 C 35.300781 37.046875 36.269531 37.925781 37.347656 38.695312 C 38.425781 39.464844 39.570312 40.109375 40.765625 40.679688 C 40.820312 40.703125 40.871094 40.742188 40.960938 40.800781 C 40.761719 40.847656 40.605469 40.867188 40.464844 40.921875 C 40.304688 40.984375 40.125 41.046875 40.015625 41.164062 C 39.566406 41.652344 39.371094 42.238281 39.453125 42.902344 C 39.503906 43.296875 39.726562 43.621094 39.933594 43.953125 C 40.113281 44.246094 40.367188 44.359375 40.699219 44.335938 C 40.742188 44.332031 40.785156 44.335938 40.828125 44.332031 C 41.359375 44.308594 41.886719 44.292969 42.414062 44.246094 C 43.019531 44.195312 43.625 44.136719 44.226562 44.035156 C 44.902344 43.921875 45.332031 43.472656 45.488281 42.835938 C 45.652344 42.1875 45.53125 41.546875 45.105469 40.996094 C 44.90625 40.738281 44.652344 40.539062 44.304688 40.515625 C 44.011719 40.496094 43.71875 40.476562 43.425781 40.492188 C 42.984375 40.519531 42.542969 40.5625 42.105469 40.628906 C 41.867188 40.667969 41.660156 40.628906 41.457031 40.515625 C 41.398438 40.480469 41.332031 40.453125 41.273438 40.417969 C 40.433594 39.929688 39.589844 39.453125 38.761719 38.945312 C 38.246094 38.625 37.746094 38.28125 37.261719 37.914062 C 35.890625 36.878906 34.820312 35.59375 34.070312 34.050781 C 33.664062 33.21875 33.238281 32.398438 32.820312 31.574219 C 32.796875 31.523438 32.777344 31.472656 32.757812 31.421875 C 35.308594 31.421875 37.84375 31.421875 40.386719 31.421875 C 40.390625 31.496094 40.398438 31.546875 40.398438 31.597656 C 40.390625 31.933594 40.359375 32.269531 40.375 32.605469 C 40.414062 33.371094 40.453125 34.140625 40.53125 34.902344 C 40.585938 35.414062 40.691406 35.925781 40.882812 36.410156 C 41.054688 36.835938 41.355469 37.132812 41.792969 37.273438 C 42.03125 37.351562 42.277344 37.410156 42.523438 37.460938 C 43.414062 37.644531 44.320312 37.640625 45.222656 37.613281 C 45.914062 37.59375 46.585938 37.476562 47.230469 37.21875 C 47.996094 36.910156 48.441406 36.355469 48.601562 35.554688 C 48.800781 34.554688 48.890625 33.542969 48.953125 32.527344 C 48.96875 32.203125 48.984375 31.875 49 31.53125 C 49.117188 31.523438 49.222656 31.503906 49.324219 31.511719 C 49.804688 31.535156 50.144531 31.304688 50.359375 30.902344 C 50.601562 30.453125 50.703125 29.960938 50.605469 29.449219 " fill-opacity="1" fill-rule="nonzero"/></g><path fill="#dab279" d="M 33.699219 24.660156 C 33.53125 24.6875 33.359375 24.738281 33.15625 24.640625 C 33.15625 24.394531 33.148438 24.140625 33.160156 23.882812 C 33.167969 23.617188 33.191406 23.351562 33.21875 23.085938 C 33.265625 22.578125 33.277344 22.070312 33.183594 21.5625 C 33.90625 21.21875 34.601562 20.847656 35.367188 20.636719 C 35.617188 20.566406 35.863281 20.484375 36.113281 20.40625 C 36.328125 20.339844 36.378906 20.265625 36.332031 20.042969 C 36.289062 19.859375 36.230469 19.679688 36.179688 19.496094 C 36.167969 19.457031 36.164062 19.417969 36.15625 19.367188 C 36.917969 19.464844 37.640625 19.316406 38.359375 19.160156 C 39.097656 19 39.828125 18.808594 40.558594 18.628906 C 40.707031 18.59375 40.855469 18.546875 41.027344 18.535156 C 40.949219 18.628906 40.878906 18.722656 40.800781 18.808594 C 40.351562 19.300781 39.890625 19.78125 39.457031 20.289062 C 39.234375 20.550781 39.058594 20.851562 38.867188 21.136719 C 38.820312 21.207031 38.789062 21.292969 38.765625 21.375 C 38.691406 21.632812 38.765625 21.835938 38.996094 21.972656 C 39.121094 22.046875 39.257812 22.109375 39.390625 22.171875 C 39.84375 22.386719 40.300781 22.597656 40.757812 22.808594 C 40.828125 22.839844 40.890625 22.878906 40.960938 22.914062 C 40.957031 22.933594 40.957031 22.953125 40.957031 22.972656 C 40.351562 23.15625 39.75 23.347656 39.144531 23.527344 C 37.980469 23.875 36.792969 24.121094 35.59375 24.332031 C 34.964844 24.445312 34.332031 24.558594 33.699219 24.660156 Z M 31.71875 20.648438 C 30.738281 20.832031 29.746094 20.839844 28.761719 20.703125 C 27.714844 20.554688 26.671875 20.363281 25.628906 20.1875 C 24.386719 19.976562 23.136719 19.796875 21.875 19.820312 C 20.640625 19.839844 19.40625 19.925781 18.203125 20.214844 C 17.734375 20.328125 17.277344 20.492188 16.789062 20.644531 C 16.832031 19.929688 16.90625 19.234375 17.0625 18.554688 C 17.304688 17.507812 17.683594 16.507812 18.003906 15.488281 C 18.109375 15.152344 18.285156 14.996094 18.609375 14.878906 C 19.882812 14.421875 21.203125 14.179688 22.539062 14 C 23.660156 13.847656 24.78125 13.742188 25.914062 13.792969 C 26.847656 13.832031 27.761719 13.992188 28.65625 14.246094 C 30.136719 14.667969 31.640625 14.808594 33.167969 14.664062 C 33.710938 14.613281 34.25 14.515625 34.792969 14.441406 C 34.851562 14.433594 34.90625 14.429688 34.976562 14.421875 C 35.128906 16.292969 35.394531 18.128906 35.921875 19.945312 C 35.84375 19.953125 35.777344 19.964844 35.714844 19.960938 C 35.179688 19.949219 34.660156 20.027344 34.140625 20.144531 C 33.335938 20.324219 32.527344 20.496094 31.71875 20.648438 Z M 17.996094 24.011719 C 16.570312 24.414062 13.417969 24.496094 12.640625 24.136719 C 12.710938 24.066406 12.773438 24.003906 12.835938 23.9375 C 13.15625 23.609375 13.484375 23.289062 13.789062 22.945312 C 13.914062 22.800781 14.007812 22.617188 14.078125 22.433594 C 14.175781 22.175781 14.101562 21.949219 13.871094 21.800781 C 13.691406 21.683594 13.488281 21.59375 13.289062 21.511719 C 12.722656 21.289062 12.128906 21.171875 11.523438 21.074219 C 13.238281 20.597656 14.894531 19.976562 16.523438 19.171875 C 16.492188 19.40625 16.457031 19.617188 16.445312 19.824219 C 16.425781 20.175781 16.398438 20.527344 16.414062 20.878906 C 16.421875 21.121094 16.460938 21.105469 16.707031 21.125 C 17.1875 21.164062 17.675781 21.097656 18.183594 21.230469 C 17.914062 22.148438 17.945312 23.085938 17.996094 24.011719 Z M 41.082031 23.335938 C 41.238281 23.285156 41.390625 23.214844 41.53125 23.132812 C 41.6875 23.042969 41.710938 22.882812 41.582031 22.765625 C 41.507812 22.699219 41.414062 22.644531 41.320312 22.605469 C 40.695312 22.324219 40.070312 22.042969 39.445312 21.769531 C 39.058594 21.597656 39.042969 21.554688 39.238281 21.175781 C 39.433594 20.792969 39.722656 20.484375 40.003906 20.167969 C 40.378906 19.746094 40.746094 19.320312 41.109375 18.890625 C 41.203125 18.78125 41.277344 18.652344 41.347656 18.523438 C 41.464844 18.304688 41.398438 18.175781 41.144531 18.152344 C 41.019531 18.140625 40.882812 18.144531 40.757812 18.171875 C 40.292969 18.28125 39.835938 18.414062 39.371094 18.519531 C 38.535156 18.707031 37.695312 18.894531 36.851562 19.058594 C 36.613281 19.105469 36.355469 19.066406 36.085938 19.066406 C 36.0625 18.984375 36.039062 18.914062 36.023438 18.839844 C 35.816406 17.792969 35.621094 16.742188 35.546875 15.671875 C 35.515625 15.234375 35.433594 14.800781 35.351562 14.371094 C 35.300781 14.097656 35.210938 14.042969 34.933594 14.050781 C 34.519531 14.066406 34.101562 14.078125 33.6875 14.121094 C 31.972656 14.3125 30.289062 14.203125 28.628906 13.730469 C 27.664062 13.457031 26.679688 13.296875 25.675781 13.277344 C 24.960938 13.261719 24.25 13.300781 23.542969 13.375 C 22.488281 13.488281 21.441406 13.648438 20.417969 13.929688 C 19.675781 14.136719 18.9375 14.363281 18.195312 14.582031 C 18 14.640625 17.875 14.765625 17.804688 14.960938 C 17.367188 16.171875 16.90625 17.371094 16.636719 18.632812 C 16.613281 18.75 16.554688 18.808594 16.445312 18.84375 C 16.230469 18.914062 16.019531 18.992188 15.8125 19.074219 C 14.609375 19.550781 13.410156 20.027344 12.175781 20.417969 C 11.796875 20.539062 11.429688 20.691406 11.058594 20.839844 C 10.960938 20.875 10.867188 20.925781 10.789062 20.992188 C 10.664062 21.097656 10.699219 21.265625 10.851562 21.316406 C 10.925781 21.34375 11.007812 21.34375 11.082031 21.355469 C 11.238281 21.378906 11.394531 21.394531 11.542969 21.4375 C 11.976562 21.5625 12.40625 21.695312 12.835938 21.832031 C 13.082031 21.914062 13.328125 22.007812 13.566406 22.109375 C 13.738281 22.183594 13.765625 22.246094 13.679688 22.414062 C 13.59375 22.578125 13.492188 22.746094 13.363281 22.882812 C 13.050781 23.21875 12.71875 23.535156 12.398438 23.863281 C 12.324219 23.9375 12.253906 24.011719 12.199219 24.101562 C 12.113281 24.238281 12.140625 24.347656 12.28125 24.429688 C 12.382812 24.488281 12.5 24.53125 12.617188 24.5625 C 13.105469 24.6875 13.601562 24.753906 14.105469 24.789062 C 15.511719 24.875 16.898438 24.726562 18.277344 24.480469 C 18.527344 24.4375 18.523438 24.429688 18.515625 24.175781 C 18.503906 23.84375 18.476562 23.503906 18.496094 23.171875 C 18.550781 22.273438 18.730469 21.398438 19.078125 20.535156 C 19.941406 20.382812 20.808594 20.324219 21.675781 20.332031 C 22.992188 20.339844 24.292969 20.519531 25.582031 20.757812 C 26.707031 20.96875 27.828125 21.21875 28.96875 21.328125 C 29.863281 21.414062 30.757812 21.414062 31.644531 21.273438 C 32.003906 21.214844 32.359375 21.144531 32.742188 21.074219 C 32.757812 21.195312 32.777344 21.3125 32.789062 21.433594 C 32.878906 22.304688 32.761719 23.171875 32.71875 24.039062 C 32.707031 24.269531 32.730469 24.507812 32.78125 24.730469 C 32.84375 24.984375 32.996094 25.082031 33.257812 25.085938 C 33.414062 25.085938 33.570312 25.070312 33.726562 25.046875 C 34.265625 24.960938 34.800781 24.859375 35.34375 24.777344 C 36.589844 24.597656 37.828125 24.382812 39.03125 24 C 39.714844 23.785156 40.402344 23.5625 41.082031 23.335938 " fill-opacity="1" fill-rule="nonzero"/><path fill="#dab279" d="M 7.90625 34.015625 C 7.878906 33.957031 7.800781 33.894531 7.738281 33.886719 C 7.695312 33.882812 7.613281 33.953125 7.597656 34.007812 C 7.441406 34.453125 7.484375 34.890625 7.691406 35.308594 C 7.71875 35.363281 7.808594 35.417969 7.875 35.417969 C 7.972656 35.421875 8.015625 35.332031 8.019531 35.238281 C 8.023438 35.097656 8.019531 34.960938 8.019531 34.824219 C 8.042969 34.546875 8.019531 34.269531 7.90625 34.015625 " fill-opacity="1" fill-rule="nonzero"/><path fill="#dab279" d="M 10.011719 33.773438 C 9.945312 33.792969 9.867188 33.851562 9.847656 33.910156 C 9.789062 34.089844 9.757812 34.277344 9.71875 34.4375 C 9.746094 34.609375 9.765625 34.753906 9.796875 34.898438 C 9.816406 35 9.890625 35.0625 9.996094 35.070312 C 10.105469 35.078125 10.183594 35.019531 10.214844 34.921875 C 10.324219 34.582031 10.324219 34.246094 10.203125 33.910156 C 10.171875 33.824219 10.109375 33.746094 10.011719 33.773438 " fill-opacity="1" fill-rule="nonzero"/><path fill="#dab279" d="M 5.53125 33.695312 C 5.484375 33.691406 5.410156 33.765625 5.398438 33.816406 C 5.292969 34.214844 5.289062 34.613281 5.40625 35.011719 C 5.4375 35.109375 5.5 35.183594 5.613281 35.167969 C 5.722656 35.152344 5.761719 35.0625 5.769531 34.960938 C 5.777344 34.851562 5.78125 34.738281 5.789062 34.628906 C 5.796875 34.625 5.808594 34.625 5.820312 34.621094 C 5.773438 34.351562 5.730469 34.082031 5.667969 33.816406 C 5.660156 33.765625 5.582031 33.695312 5.53125 33.695312 " fill-opacity="1" fill-rule="nonzero"/><path fill="#dab279" d="M 45.152344 33.960938 C 45.09375 33.875 44.996094 33.871094 44.929688 33.949219 C 44.890625 34.003906 44.855469 34.070312 44.839844 34.132812 C 44.792969 34.378906 44.757812 34.625 44.714844 34.867188 C 44.722656 34.871094 44.734375 34.871094 44.742188 34.875 C 44.753906 35.019531 44.757812 35.167969 44.78125 35.3125 C 44.789062 35.359375 44.847656 35.429688 44.886719 35.433594 C 44.945312 35.441406 45.019531 35.410156 45.070312 35.375 C 45.105469 35.347656 45.128906 35.289062 45.144531 35.242188 C 45.28125 34.894531 45.300781 34.535156 45.238281 34.175781 C 45.222656 34.101562 45.191406 34.023438 45.152344 33.960938 " fill-opacity="1" fill-rule="nonzero"/><path fill="#dab279" d="M 42.757812 33.796875 C 42.6875 33.816406 42.605469 33.886719 42.582031 33.953125 C 42.527344 34.113281 42.507812 34.285156 42.472656 34.445312 C 42.503906 34.613281 42.523438 34.765625 42.558594 34.917969 C 42.582031 35.027344 42.660156 35.097656 42.78125 35.09375 C 42.890625 35.089844 42.964844 35.027344 42.992188 34.925781 C 43.078125 34.59375 43.070312 34.261719 42.945312 33.9375 C 42.914062 33.855469 42.855469 33.765625 42.757812 33.796875 " fill-opacity="1" fill-rule="nonzero"/><path fill="#dab279" d="M 47.253906 33.710938 C 47.203125 33.761719 47.144531 33.808594 47.101562 33.867188 C 47.082031 33.890625 47.082031 33.929688 47.074219 33.964844 C 46.992188 34.300781 46.96875 34.640625 47.019531 34.984375 C 47.035156 35.082031 47.050781 35.175781 47.171875 35.191406 C 47.300781 35.203125 47.363281 35.121094 47.386719 35.011719 C 47.421875 34.820312 47.445312 34.625 47.476562 34.4375 C 47.449219 34.238281 47.433594 34.050781 47.394531 33.867188 C 47.382812 33.808594 47.300781 33.765625 47.253906 33.710938 " fill-opacity="1" fill-rule="nonzero"/><path fill="#dab279" d="M 7.964844 22.511719 C 8.839844 22.511719 9.535156 23.21875 9.53125 24.105469 C 9.53125 24.976562 8.832031 25.664062 7.957031 25.660156 C 7.085938 25.660156 6.367188 24.9375 6.378906 24.070312 C 6.386719 23.210938 7.101562 22.511719 7.964844 22.511719 Z M 7.992188 25.933594 C 9 25.9375 9.835938 25.121094 9.847656 24.117188 C 9.855469 23.125 9.011719 22.289062 8 22.289062 C 6.984375 22.289062 6.152344 23.105469 6.152344 24.109375 C 6.152344 25.125 6.960938 25.929688 7.992188 25.933594 " fill-opacity="1" fill-rule="nonzero"/><path fill="#dab279" d="M 44.527344 22.511719 C 45.40625 22.519531 46.09375 23.226562 46.089844 24.113281 C 46.085938 24.980469 45.382812 25.667969 44.507812 25.660156 C 43.644531 25.65625 42.9375 24.949219 42.933594 24.089844 C 42.929688 23.226562 43.660156 22.503906 44.527344 22.511719 Z M 44.546875 25.933594 C 45.558594 25.9375 46.394531 25.117188 46.402344 24.113281 C 46.414062 23.125 45.570312 22.289062 44.554688 22.289062 C 43.539062 22.289062 42.710938 23.105469 42.710938 24.109375 C 42.710938 25.125 43.519531 25.929688 44.546875 25.933594 " fill-opacity="1" fill-rule="nonzero"/><g clip-path="url(#88317bf87c)"><path fill="#dab279" d="M 26.09375 45.730469 C 25.910156 45.914062 25.648438 45.90625 25.472656 45.714844 C 25.171875 45.390625 25.191406 44.824219 25.511719 44.523438 C 25.765625 44.285156 26.0625 44.34375 26.195312 44.664062 C 26.226562 44.734375 26.25 44.808594 26.265625 44.882812 C 26.285156 44.964844 26.289062 45.054688 26.292969 45.105469 C 26.300781 45.359375 26.257812 45.566406 26.09375 45.730469 Z M 26.414062 44.40625 C 26.132812 44.035156 25.625 44.027344 25.324219 44.378906 C 24.960938 44.800781 24.933594 45.265625 25.132812 45.753906 C 25.339844 46.261719 25.933594 46.371094 26.328125 45.996094 C 26.5625 45.773438 26.660156 45.496094 26.65625 45.179688 C 26.65625 44.898438 26.585938 44.632812 26.414062 44.40625 " fill-opacity="1" fill-rule="nonzero"/></g><path fill="#dab279" d="M 10.851562 44.007812 C 10.667969 44.203125 10.394531 44.199219 10.214844 44 C 9.914062 43.664062 9.9375 43.113281 10.265625 42.808594 C 10.519531 42.574219 10.8125 42.636719 10.945312 42.960938 C 10.980469 43.046875 11.007812 43.140625 11.027344 43.230469 C 11.042969 43.308594 11.042969 43.386719 11.046875 43.421875 C 11.046875 43.667969 10.996094 43.855469 10.851562 44.007812 Z M 11.144531 42.675781 C 10.867188 42.324219 10.359375 42.328125 10.070312 42.667969 C 9.722656 43.078125 9.671875 43.53125 9.867188 44.019531 C 10.082031 44.5625 10.707031 44.675781 11.113281 44.25 C 11.320312 44.03125 11.402344 43.765625 11.410156 43.445312 C 11.394531 43.183594 11.328125 42.90625 11.144531 42.675781 " fill-opacity="1" fill-rule="nonzero"/><path fill="#dab279" d="M 43.554688 41.800781 C 43.605469 41.480469 43.863281 41.359375 44.152344 41.503906 C 44.457031 41.65625 44.589844 41.886719 44.601562 42.257812 C 44.585938 42.367188 44.585938 42.484375 44.550781 42.585938 C 44.449219 42.890625 44.144531 42.992188 43.886719 42.796875 C 43.796875 42.726562 43.710938 42.628906 43.65625 42.527344 C 43.539062 42.300781 43.511719 42.050781 43.554688 41.800781 Z M 43.277344 42.5625 C 43.378906 42.832031 43.546875 43.042969 43.8125 43.167969 C 44.257812 43.382812 44.730469 43.164062 44.847656 42.6875 C 44.871094 42.59375 44.875 42.5 44.890625 42.40625 C 44.90625 41.894531 44.65625 41.53125 44.234375 41.277344 C 44.136719 41.21875 44.007812 41.175781 43.894531 41.183594 C 43.558594 41.203125 43.300781 41.445312 43.226562 41.773438 C 43.167969 42.042969 43.179688 42.304688 43.277344 42.5625 " fill-opacity="1" fill-rule="nonzero"/><path fill="#dab279" d="M 18.167969 44.527344 C 17.695312 44.609375 17.308594 44.28125 17.3125 43.753906 C 17.363281 43.488281 17.375 43.167969 17.675781 42.957031 C 18.101562 42.660156 18.675781 42.84375 18.832031 43.335938 C 19.003906 43.878906 18.695312 44.433594 18.167969 44.527344 Z M 18.011719 42.59375 C 17.886719 42.609375 17.757812 42.65625 17.652344 42.722656 C 17.335938 42.929688 17.195312 43.25 17.128906 43.609375 C 17.054688 44.003906 17.199219 44.441406 17.515625 44.636719 C 17.863281 44.847656 18.230469 44.824219 18.578125 44.628906 C 18.96875 44.410156 19.082031 44.039062 19.09375 43.53125 C 19.136719 42.925781 18.574219 42.539062 18.011719 42.59375 " fill-opacity="1" fill-rule="nonzero"/><path fill="#dab279" d="M 35.925781 43.152344 C 36.121094 43.253906 36.191406 43.433594 36.1875 43.648438 C 36.1875 43.953125 35.792969 44.382812 35.480469 44.402344 C 35.394531 44.40625 35.28125 44.378906 35.21875 44.324219 C 34.816406 43.980469 34.863281 43.449219 35.28125 43.160156 C 35.464844 43.03125 35.710938 43.042969 35.925781 43.152344 Z M 34.734375 43.800781 C 34.789062 43.972656 34.820312 44.152344 34.902344 44.308594 C 35.019531 44.535156 35.222656 44.671875 35.492188 44.648438 C 35.867188 44.613281 36.273438 44.253906 36.371094 43.894531 C 36.480469 43.46875 36.261719 43.035156 35.875 42.957031 C 35.742188 42.929688 35.597656 42.957031 35.464844 42.976562 C 35.011719 43.050781 34.769531 43.34375 34.734375 43.800781 " fill-opacity="1" fill-rule="nonzero"/><path fill="#dab279" d="M 22.339844 16.710938 C 22.207031 16.652344 22.078125 16.699219 21.980469 16.796875 C 21.816406 16.960938 21.65625 17.128906 21.496094 17.300781 C 21.425781 17.378906 21.363281 17.464844 21.269531 17.582031 C 21.226562 17.425781 21.199219 17.320312 21.164062 17.214844 C 21.113281 17.070312 21.074219 16.914062 21.003906 16.78125 C 20.890625 16.554688 20.640625 16.5625 20.515625 16.777344 C 20.480469 16.835938 20.457031 16.90625 20.433594 16.96875 C 20.207031 17.589844 19.980469 18.214844 19.753906 18.835938 C 19.734375 18.890625 19.707031 18.949219 19.703125 19.007812 C 19.703125 19.152344 19.835938 19.222656 19.957031 19.144531 C 19.992188 19.121094 20.019531 19.082031 20.046875 19.050781 C 20.304688 18.785156 20.46875 18.464844 20.601562 18.125 C 20.648438 18.007812 20.699219 17.894531 20.761719 17.75 C 20.820312 17.914062 20.855469 18.039062 20.914062 18.152344 C 21.023438 18.375 21.234375 18.394531 21.394531 18.207031 C 21.449219 18.140625 21.488281 18.0625 21.542969 17.992188 C 21.667969 17.824219 21.796875 17.65625 21.925781 17.484375 C 21.941406 17.496094 21.953125 17.507812 21.96875 17.519531 C 21.929688 17.84375 21.878906 18.167969 21.859375 18.492188 C 21.847656 18.652344 21.886719 18.816406 21.929688 18.972656 C 21.953125 19.066406 22.03125 19.132812 22.144531 19.128906 C 22.253906 19.125 22.320312 19.054688 22.347656 18.957031 C 22.378906 18.84375 22.402344 18.722656 22.414062 18.605469 C 22.441406 18.234375 22.457031 17.863281 22.480469 17.496094 C 22.488281 17.347656 22.503906 17.203125 22.511719 17.058594 C 22.519531 16.910156 22.488281 16.777344 22.339844 16.710938 " fill-opacity="1" fill-rule="nonzero"/><path fill="#dab279" d="M 33.570312 18.292969 C 33.503906 18.824219 33.207031 19.085938 32.617188 19.105469 C 32.632812 18.59375 32.644531 18.082031 32.660156 17.585938 C 33.214844 17.425781 33.636719 17.773438 33.570312 18.292969 Z M 32.808594 17.113281 C 32.695312 17.125 32.582031 17.125 32.425781 17.132812 C 32.402344 17.1875 32.34375 17.28125 32.335938 17.375 C 32.277344 18.007812 32.230469 18.640625 32.179688 19.277344 C 32.175781 19.328125 32.171875 19.378906 32.183594 19.429688 C 32.21875 19.578125 32.371094 19.648438 32.476562 19.542969 C 32.570312 19.449219 32.65625 19.476562 32.757812 19.484375 C 32.851562 19.496094 32.949219 19.5 33.039062 19.484375 C 33.503906 19.398438 33.828125 19.144531 33.964844 18.683594 C 34.109375 18.191406 34.003906 17.765625 33.636719 17.410156 C 33.40625 17.1875 33.132812 17.082031 32.808594 17.113281 " fill-opacity="1" fill-rule="nonzero"/><path fill="#dab279" d="M 27.660156 17.644531 C 27.535156 17.726562 27.394531 17.792969 27.226562 17.773438 C 27.226562 17.554688 27.226562 17.34375 27.226562 17.085938 C 27.390625 17.136719 27.523438 17.160156 27.632812 17.214844 C 27.832031 17.3125 27.84375 17.519531 27.660156 17.644531 Z M 27.96875 17.003906 C 27.742188 16.816406 27.484375 16.753906 27.191406 16.828125 C 26.925781 16.890625 26.925781 16.882812 26.890625 17.140625 C 26.816406 17.6875 26.734375 18.230469 26.675781 18.777344 C 26.65625 18.9375 26.679688 19.105469 26.710938 19.261719 C 26.722656 19.316406 26.8125 19.378906 26.875 19.390625 C 26.910156 19.398438 26.992188 19.320312 27.007812 19.265625 C 27.050781 19.101562 27.074219 18.929688 27.109375 18.761719 C 27.121094 18.691406 27.136719 18.625 27.160156 18.507812 C 27.339844 18.773438 27.484375 18.984375 27.632812 19.195312 C 27.6875 19.273438 27.742188 19.351562 27.8125 19.417969 C 27.886719 19.488281 27.976562 19.507812 28.070312 19.445312 C 28.167969 19.386719 28.191406 19.292969 28.15625 19.199219 C 28.121094 19.105469 28.070312 19.011719 28.007812 18.929688 C 27.804688 18.671875 27.59375 18.421875 27.378906 18.15625 C 27.550781 18.09375 27.710938 18.054688 27.855469 17.984375 C 28.269531 17.773438 28.324219 17.300781 27.96875 17.003906 " fill-opacity="1" fill-rule="nonzero"/><path fill="#dab279" d="M 25.800781 17.523438 C 25.671875 17.597656 25.523438 17.636719 25.335938 17.710938 C 25.359375 17.480469 25.375 17.308594 25.398438 17.085938 C 25.546875 17.113281 25.671875 17.117188 25.777344 17.164062 C 25.953125 17.246094 25.964844 17.421875 25.800781 17.523438 Z M 26.175781 17.625 C 26.445312 17.273438 26.261719 16.804688 25.824219 16.738281 C 25.683594 16.71875 25.53125 16.773438 25.386719 16.761719 C 25.179688 16.742188 25.109375 16.863281 25.070312 17.027344 C 24.949219 17.535156 24.828125 18.046875 24.71875 18.558594 C 24.6875 18.710938 24.703125 18.871094 24.703125 19.023438 C 24.703125 19.128906 24.742188 19.214844 24.859375 19.230469 C 24.976562 19.246094 25.027344 19.164062 25.0625 19.070312 C 25.082031 19.023438 25.097656 18.972656 25.109375 18.921875 C 25.15625 18.726562 25.203125 18.527344 25.253906 18.292969 C 25.3125 18.371094 25.347656 18.425781 25.386719 18.476562 C 25.566406 18.730469 25.742188 18.988281 25.925781 19.238281 C 25.964844 19.292969 26.015625 19.351562 26.078125 19.371094 C 26.132812 19.394531 26.214844 19.386719 26.265625 19.355469 C 26.296875 19.339844 26.300781 19.246094 26.285156 19.199219 C 26.261719 19.117188 26.21875 19.039062 26.171875 18.96875 C 25.964844 18.664062 25.757812 18.359375 25.535156 18.03125 C 25.785156 17.929688 26.019531 17.832031 26.175781 17.625 " fill-opacity="1" fill-rule="nonzero"/><path fill="#dab279" d="M 23.820312 17.722656 C 23.730469 17.722656 23.65625 17.722656 23.566406 17.722656 C 23.589844 17.539062 23.671875 17.410156 23.820312 17.285156 C 23.820312 17.449219 23.820312 17.582031 23.820312 17.722656 Z M 24.226562 17.191406 C 24.214844 17.074219 24.164062 16.957031 24.109375 16.851562 C 23.996094 16.632812 23.796875 16.605469 23.621094 16.777344 C 23.546875 16.847656 23.476562 16.925781 23.425781 17.015625 C 23.097656 17.585938 22.84375 18.1875 22.703125 18.832031 C 22.6875 18.90625 22.6875 18.988281 22.707031 19.058594 C 22.722656 19.109375 22.78125 19.175781 22.824219 19.175781 C 22.878906 19.179688 22.964844 19.144531 22.992188 19.097656 C 23.042969 19.011719 23.0625 18.90625 23.097656 18.808594 C 23.1875 18.550781 23.273438 18.292969 23.367188 18.03125 C 23.535156 18.054688 23.671875 18.070312 23.828125 18.09375 C 23.828125 18.332031 23.828125 18.546875 23.828125 18.761719 C 23.832031 18.839844 23.835938 18.917969 23.855469 18.992188 C 23.882812 19.089844 23.957031 19.15625 24.0625 19.160156 C 24.175781 19.167969 24.261719 19.101562 24.292969 18.988281 C 24.3125 18.90625 24.332031 18.820312 24.328125 18.734375 C 24.300781 18.21875 24.269531 17.703125 24.226562 17.191406 " fill-opacity="1" fill-rule="nonzero"/><path fill="#dab279" d="M 31.515625 17.113281 C 31.242188 17.09375 30.964844 17.066406 30.6875 17.0625 C 30.5625 17.058594 30.460938 17.132812 30.429688 17.273438 C 30.402344 17.414062 30.359375 17.554688 30.34375 17.699219 C 30.304688 18 30.277344 18.296875 30.25 18.597656 C 30.222656 18.855469 30.1875 19.109375 30.175781 19.367188 C 30.164062 19.597656 30.269531 19.691406 30.5 19.703125 C 30.621094 19.710938 30.742188 19.734375 30.863281 19.726562 C 31.015625 19.714844 31.171875 19.695312 31.320312 19.65625 C 31.429688 19.628906 31.496094 19.539062 31.480469 19.421875 C 31.460938 19.296875 31.363281 19.257812 31.25 19.253906 C 31.207031 19.25 31.164062 19.261719 31.121094 19.261719 C 30.96875 19.257812 30.816406 19.253906 30.65625 19.25 C 30.679688 18.96875 30.699219 18.722656 30.71875 18.460938 C 30.921875 18.460938 31.109375 18.460938 31.296875 18.460938 C 31.417969 18.460938 31.527344 18.433594 31.554688 18.292969 C 31.574219 18.179688 31.492188 18.085938 31.335938 18.050781 C 31.285156 18.039062 31.234375 18.039062 31.183594 18.03125 C 31.03125 18.007812 30.882812 17.980469 30.726562 17.957031 C 30.738281 17.773438 30.75 17.613281 30.761719 17.441406 C 30.820312 17.4375 30.871094 17.429688 30.921875 17.429688 C 31.113281 17.425781 31.304688 17.425781 31.496094 17.417969 C 31.59375 17.417969 31.664062 17.371094 31.664062 17.265625 C 31.664062 17.175781 31.605469 17.121094 31.515625 17.113281 " fill-opacity="1" fill-rule="nonzero"/><path fill="#dab279" d="M 25.066406 14.371094 C 25.070312 14.367188 25.074219 14.367188 25.074219 14.363281 C 25.070312 14.363281 25.070312 14.363281 25.066406 14.363281 C 25.066406 14.367188 25.066406 14.367188 25.066406 14.371094 " fill-opacity="1" fill-rule="nonzero"/><path fill="#dab279" d="M 25.019531 15.464844 C 25.019531 15.574219 25.046875 15.691406 25.082031 15.792969 C 25.1875 16.089844 25.460938 16.175781 25.695312 15.972656 C 25.820312 15.863281 25.941406 15.71875 26 15.566406 C 26.101562 15.300781 26.15625 15.019531 26.222656 14.746094 C 26.246094 14.644531 26.261719 14.539062 26.253906 14.4375 C 26.246094 14.375 26.195312 14.289062 26.140625 14.261719 C 26.058594 14.21875 25.988281 14.285156 25.957031 14.359375 C 25.914062 14.472656 25.886719 14.589844 25.851562 14.703125 C 25.785156 14.925781 25.726562 15.148438 25.652344 15.371094 C 25.625 15.453125 25.605469 15.578125 25.476562 15.558594 C 25.34375 15.539062 25.359375 15.402344 25.355469 15.308594 C 25.34375 15.164062 25.355469 15.015625 25.363281 14.867188 C 25.371094 14.738281 25.390625 14.613281 25.390625 14.484375 C 25.394531 14.378906 25.441406 14.242188 25.292969 14.195312 C 25.15625 14.15625 25.140625 14.300781 25.074219 14.363281 C 25.074219 14.40625 25.074219 14.449219 25.070312 14.492188 C 25.054688 14.816406 25.027344 15.140625 25.019531 15.464844 " fill-opacity="1" fill-rule="nonzero"/><path fill="#dab279" d="M 26.171875 15.671875 C 26.164062 15.742188 26.175781 15.832031 26.214844 15.886719 C 26.335938 16.054688 26.5 16.160156 26.722656 16.144531 C 26.984375 16.125 27.210938 16.027344 27.394531 15.84375 C 27.609375 15.628906 27.609375 15.3125 27.386719 15.109375 C 27.289062 15.015625 27.160156 14.953125 27.042969 14.882812 C 26.96875 14.835938 26.886719 14.796875 26.765625 14.734375 C 26.875 14.652344 26.945312 14.597656 27.03125 14.535156 C 27.113281 14.628906 27.171875 14.71875 27.25 14.78125 C 27.296875 14.816406 27.390625 14.839844 27.433594 14.816406 C 27.480469 14.789062 27.519531 14.699219 27.507812 14.648438 C 27.488281 14.558594 27.445312 14.464844 27.378906 14.402344 C 27.132812 14.167969 26.855469 14.191406 26.632812 14.445312 C 26.398438 14.707031 26.441406 14.949219 26.75 15.117188 C 26.84375 15.164062 26.945312 15.199219 27.027344 15.257812 C 27.191406 15.375 27.195312 15.554688 27.023438 15.660156 C 26.917969 15.726562 26.785156 15.785156 26.664062 15.789062 C 26.589844 15.789062 26.507812 15.679688 26.429688 15.621094 C 26.414062 15.609375 26.402344 15.597656 26.390625 15.585938 C 26.296875 15.527344 26.1875 15.5625 26.171875 15.671875 " fill-opacity="1" fill-rule="nonzero"/><path fill="#dab279" d="M 29.476562 18.921875 C 29.378906 18.988281 29.28125 19.054688 29.144531 19.152344 C 29.121094 18.976562 29.082031 18.84375 29.089844 18.714844 C 29.105469 18.421875 29.148438 18.132812 29.175781 17.84375 C 29.1875 17.714844 29.203125 17.585938 29.191406 17.460938 C 29.1875 17.40625 29.121094 17.339844 29.070312 17.320312 C 28.992188 17.285156 28.914062 17.324219 28.878906 17.410156 C 28.839844 17.503906 28.796875 17.601562 28.785156 17.703125 C 28.726562 18.09375 28.679688 18.484375 28.632812 18.875 C 28.621094 18.976562 28.625 19.085938 28.644531 19.183594 C 28.714844 19.550781 28.992188 19.6875 29.320312 19.507812 C 29.460938 19.429688 29.589844 19.324219 29.710938 19.21875 C 29.84375 19.105469 29.867188 18.992188 29.796875 18.90625 C 29.726562 18.816406 29.625 18.820312 29.476562 18.921875 " fill-opacity="1" fill-rule="nonzero"/><path fill="#dab279" d="M 24.867188 14.148438 C 24.480469 14.179688 24.09375 14.222656 23.707031 14.265625 C 23.664062 14.269531 23.621094 14.289062 23.589844 14.316406 C 23.519531 14.371094 23.53125 14.472656 23.613281 14.5 C 23.667969 14.519531 23.734375 14.519531 23.792969 14.519531 C 23.9375 14.523438 24.078125 14.523438 24.253906 14.523438 C 24.179688 14.8125 24.136719 15.066406 24.054688 15.308594 C 23.953125 15.605469 23.835938 15.640625 23.546875 15.515625 C 23.53125 15.507812 23.515625 15.492188 23.5 15.496094 C 23.453125 15.5 23.382812 15.492188 23.359375 15.519531 C 23.328125 15.558594 23.304688 15.640625 23.324219 15.679688 C 23.382812 15.8125 23.472656 15.929688 23.628906 15.976562 C 23.886719 16.050781 24.179688 15.953125 24.316406 15.695312 C 24.40625 15.523438 24.460938 15.328125 24.5 15.136719 C 24.542969 14.929688 24.546875 14.714844 24.566406 14.523438 C 24.746094 14.464844 24.90625 14.414062 25.066406 14.363281 C 25.042969 14.171875 25.027344 14.136719 24.867188 14.148438 " fill-opacity="1" fill-rule="nonzero"/><path fill="#dab279" d="M 28.675781 15.683594 C 28.691406 15.382812 28.707031 15.085938 28.726562 14.777344 C 28.894531 14.761719 29.039062 14.742188 29.183594 14.730469 C 29.273438 14.722656 29.347656 14.683594 29.339844 14.59375 C 29.332031 14.542969 29.261719 14.496094 29.21875 14.449219 C 29.207031 14.4375 29.1875 14.433594 29.171875 14.429688 C 28.785156 14.339844 28.398438 14.351562 28.011719 14.40625 C 27.914062 14.417969 27.839844 14.488281 27.863281 14.582031 C 27.875 14.640625 27.953125 14.703125 28.015625 14.726562 C 28.109375 14.761719 28.21875 14.761719 28.351562 14.78125 C 28.34375 14.847656 28.335938 14.898438 28.332031 14.949219 C 28.308594 15.289062 28.28125 15.632812 28.261719 15.976562 C 28.257812 16.121094 28.335938 16.214844 28.445312 16.214844 C 28.570312 16.210938 28.628906 16.128906 28.644531 16.015625 C 28.660156 15.90625 28.667969 15.792969 28.675781 15.683594 " fill-opacity="1" fill-rule="nonzero"/><path fill="#dab279" d="M 28.796875 16.949219 C 28.796875 17.082031 28.914062 17.203125 29.042969 17.199219 C 29.171875 17.199219 29.292969 17.082031 29.296875 16.957031 C 29.300781 16.824219 29.1875 16.707031 29.054688 16.707031 C 28.925781 16.707031 28.800781 16.824219 28.796875 16.949219 " fill-opacity="1" fill-rule="nonzero"/><path fill="#dab279" d="M 17.316406 19.558594 C 17.191406 19.566406 17.089844 19.679688 17.097656 19.804688 C 17.109375 19.929688 17.21875 20.023438 17.347656 20.011719 C 17.460938 19.996094 17.554688 19.894531 17.554688 19.78125 C 17.550781 19.660156 17.433594 19.550781 17.316406 19.558594 " fill-opacity="1" fill-rule="nonzero"/><path fill="#dab279" d="M 35.140625 19.578125 C 35.261719 19.582031 35.378906 19.476562 35.378906 19.355469 C 35.382812 19.230469 35.277344 19.128906 35.148438 19.128906 C 35.03125 19.128906 34.9375 19.21875 34.925781 19.335938 C 34.917969 19.460938 35.015625 19.570312 35.140625 19.578125 " fill-opacity="1" fill-rule="nonzero"/><path fill="#dab279" d="M 34.453125 15.230469 C 34.578125 15.234375 34.679688 15.128906 34.679688 15.003906 C 34.679688 14.886719 34.585938 14.789062 34.46875 14.789062 C 34.347656 14.789062 34.242188 14.894531 34.242188 15.015625 C 34.246094 15.132812 34.339844 15.230469 34.453125 15.230469 " fill-opacity="1" fill-rule="nonzero"/><path fill="#dab279" d="M 18.453125 15.261719 C 18.367188 15.242188 18.28125 15.34375 18.289062 15.445312 C 18.296875 15.542969 18.355469 15.597656 18.453125 15.601562 C 18.550781 15.605469 18.625 15.515625 18.621094 15.371094 C 18.582031 15.34375 18.523438 15.277344 18.453125 15.261719 " fill-opacity="1" fill-rule="nonzero"/></svg>