<svg xmlns="http://www.w3.org/2000/svg" xmlns:xlink="http://www.w3.org/1999/xlink" width="70" zoomAndPan="magnify" viewBox="0 0 52.5 52.499999" height="70" preserveAspectRatio="xMidYMid meet" version="1.0"><defs><clipPath id="264b5c5fb2"><path d="M 3.675781 3.675781 L 48.675781 3.675781 L 48.675781 48.675781 L 3.675781 48.675781 Z M 3.675781 3.675781 " clip-rule="nonzero"/></clipPath></defs><g clip-path="url(#264b5c5fb2)"><path fill="#dab279" d="M 16.90625 3.675781 C 9.644531 3.675781 3.675781 9.636719 3.675781 16.90625 L 3.675781 35.445312 C 3.675781 42.707031 9.636719 48.675781 16.90625 48.675781 L 35.445312 48.675781 C 42.707031 48.675781 48.675781 42.714844 48.675781 35.445312 L 48.675781 16.90625 C 48.675781 9.644531 42.714844 3.675781 35.445312 3.675781 Z M 16.90625 7.765625 L 35.445312 7.765625 C 40.5 7.765625 44.585938 11.847656 44.585938 16.90625 L 44.585938 35.445312 C 44.585938 40.5 40.5 44.585938 35.445312 44.585938 L 16.90625 44.585938 C 11.847656 44.585938 7.765625 40.5 7.765625 35.445312 L 7.765625 16.90625 C 7.765625 11.847656 11.847656 7.765625 16.90625 7.765625 Z M 38.257812 12.242188 C 37.226562 12.242188 36.402344 13.0625 36.402344 14.09375 C 36.402344 15.125 37.226562 15.949219 38.257812 15.949219 C 39.285156 15.949219 40.109375 15.125 40.109375 14.09375 C 40.109375 13.0625 39.285156 12.242188 38.257812 12.242188 Z M 26.175781 13.902344 C 19.421875 13.902344 13.902344 19.421875 13.902344 26.175781 C 13.902344 32.925781 19.421875 38.449219 26.175781 38.449219 C 32.925781 38.449219 38.449219 32.925781 38.449219 26.175781 C 38.449219 19.421875 32.925781 13.902344 26.175781 13.902344 Z M 26.175781 17.992188 C 30.722656 17.992188 34.355469 21.628906 34.355469 26.175781 C 34.355469 30.722656 30.722656 34.355469 26.175781 34.355469 C 21.628906 34.355469 17.992188 30.722656 17.992188 26.175781 C 17.992188 21.628906 21.628906 17.992188 26.175781 17.992188 Z M 26.175781 17.992188 " fill-opacity="1" fill-rule="nonzero"/></g></svg>