<svg xmlns="http://www.w3.org/2000/svg" xmlns:xlink="http://www.w3.org/1999/xlink" width="70" zoomAndPan="magnify" viewBox="0 0 52.5 52.499999" height="70" preserveAspectRatio="xMidYMid meet" version="1.0"><defs><clipPath id="91dcdf7946"><path d="M 1.359375 8.484375 L 50.859375 8.484375 L 50.859375 43.734375 L 1.359375 43.734375 Z M 1.359375 8.484375 " clip-rule="nonzero"/></clipPath></defs><g clip-path="url(#91dcdf7946)"><path fill="#dab279" d="M 6.675781 8.484375 C 3.75 8.484375 1.378906 10.847656 1.378906 13.773438 C 1.445312 21.789062 1.378906 30.277344 1.378906 38.445312 C 1.378906 41.261719 3.570312 43.539062 6.347656 43.707031 L 45.761719 43.734375 C 48.585938 43.621094 50.839844 41.296875 50.839844 38.445312 L 50.839844 12.863281 C 50.410156 10.371094 48.242188 8.484375 45.625 8.484375 C 32.648438 8.492188 19.65625 8.484375 6.675781 8.484375 Z M 6.59375 11.265625 L 45.789062 11.265625 L 26.828125 30.183594 C 26.480469 30.53125 25.929688 30.53125 25.585938 30.183594 Z M 48.191406 12.613281 L 48.191406 38.253906 C 48.191406 39.78125 47.640625 40.644531 46.535156 40.953125 L 33.175781 27.597656 L 48.191406 12.617188 Z M 4.332031 12.726562 L 19.097656 27.457031 L 5.601562 40.925781 C 4.679688 40.613281 4.355469 39.871094 4.332031 38.859375 Z M 20.976562 29.304688 L 25.585938 33.929688 C 25.929688 34.273438 26.480469 34.273438 26.828125 33.929688 L 31.300781 29.46875 L 42.949219 41.089844 L 9.164062 41.089844 Z M 20.976562 29.304688 " fill-opacity="1" fill-rule="nonzero"/></g></svg>